<svg width="68" height="14" viewBox="0 0 68 14" fill="none" xmlns="http://www.w3.org/2000/svg">
<path d="M3.79036 11.1055C3.3138 11.1055 2.88997 10.9805 2.51888 10.7305C2.14779 10.4766 1.91146 10.1543 1.8099 9.76367H1.77474L1.51693 11H0.315755L2.11458 2.54492H3.36263L2.67708 5.76172H2.70052C2.8763 5.44922 3.13411 5.19727 3.47396 5.00586C3.81771 4.81055 4.1849 4.71289 4.57552 4.71289C5.26693 4.71289 5.81576 4.94531 6.22201 5.41016C6.62826 5.875 6.83138 6.51562 6.83138 7.33203C6.83138 7.72656 6.78646 8.10938 6.69661 8.48047C6.60677 8.85156 6.47396 9.19531 6.29818 9.51172C6.1224 9.82812 5.91341 10.1055 5.67122 10.3438C5.42904 10.582 5.14583 10.7695 4.82161 10.9062C4.5013 11.0391 4.15755 11.1055 3.79036 11.1055ZM3.66732 9.98047C4.22591 9.98047 4.68099 9.73633 5.03255 9.24805C5.38802 8.75977 5.56576 8.1582 5.56576 7.44336C5.56576 6.93945 5.44271 6.54297 5.19661 6.25391C4.95443 5.96094 4.61263 5.81445 4.17122 5.81445C3.59701 5.81445 3.1224 6.06836 2.7474 6.57617C2.3763 7.08008 2.19076 7.69336 2.19076 8.41602C2.19076 8.87695 2.32552 9.25391 2.59505 9.54688C2.86849 9.83594 3.22591 9.98047 3.66732 9.98047ZM6.89062 13.2559C6.57422 13.2559 6.33203 13.2305 6.16406 13.1797L6.35742 12.1074C6.47852 12.1543 6.66602 12.1777 6.91992 12.1777C7.42383 12.1777 7.81836 11.8789 8.10352 11.2812C8.10352 11.2773 8.13086 11.2207 8.18555 11.1113L8.26172 10.9473L7.33008 4.81836H8.58398L9.18164 9.72852H9.20508L11.7539 4.81836H13.1191L9.39844 11.4805C9.03906 12.1445 8.66602 12.6055 8.2793 12.8633C7.89648 13.125 7.43359 13.2559 6.89062 13.2559Z" fill="#16181B"/>
<path d="M40.8828 11.964L47.5152 1.61328H49.1617L50.7907 11.964H48.7817L48.4398 9.88129H46.8526L47.3442 7.85115H48.1202L47.6768 4.96501L45.7974 7.85115H46.5527L46.0631 9.88129H44.4683L43.125 11.964H40.8828Z" fill="black"/>
<path d="M37.5913 4.99104L38.4315 1.61139L43.9392 1.61798L43.4199 3.72732H39.9884L39.6811 4.99104H37.5913Z" fill="black"/>
<path d="M42.1866 5.76501H37.3995L35.8594 11.9648H37.9471L38.9884 7.8519L41.6661 7.87435L42.1866 5.76501Z" fill="black"/>
<path d="M56.5391 3.72726C56.4606 3.72726 56.3822 3.73307 56.3046 3.74468C56.1995 3.76043 56.0957 3.78445 55.9942 3.81651C55.9066 3.84421 55.8204 3.87616 55.7359 3.91224L55.7077 3.92431C55.6388 3.95369 55.5728 3.98965 55.5105 4.03143L55.4225 4.09052C55.3867 4.11465 55.3523 4.1409 55.3195 4.16917L55.2567 4.22323C55.1838 4.28601 55.1165 4.35516 55.0559 4.43C55.0199 4.47423 54.9894 4.52305 54.9653 4.57488V4.57499C54.9298 4.65118 54.9059 4.73239 54.8946 4.81583C54.8876 4.86833 54.8952 4.91905 54.8992 4.97177L54.9025 4.99512C54.9083 5.01925 54.9227 5.05544 54.9348 5.07376C54.989 5.14871 55.0139 5.18971 55.0854 5.24545C55.1492 5.29929 55.2229 5.33984 55.2994 5.37279L55.4749 5.44864L55.6765 5.52192L55.9196 5.60246L56.1275 5.67194L56.3472 5.73684L56.83 5.87949L57.2063 6.0046C57.2832 6.02996 57.3917 6.07453 57.4644 6.11016L57.5384 6.14479L57.6194 6.18534C57.6458 6.19796 57.7089 6.23326 57.7569 6.26208C57.7993 6.28766 57.8379 6.3157 57.879 6.34206L57.9251 6.37446L57.9721 6.41266C58.0125 6.44752 58.0541 6.48795 58.0822 6.51778C58.0925 6.52861 58.1026 6.53967 58.1129 6.55062C58.1591 6.60011 58.2034 6.6516 58.245 6.70477C58.267 6.73281 58.2879 6.76174 58.3077 6.79135C58.3302 6.82475 58.3552 6.86038 58.3747 6.89557L58.4073 6.94963L58.4423 7.00761L58.4712 7.0581L58.4924 7.09619C58.5031 7.11686 58.5199 7.15294 58.5313 7.18343C58.5383 7.20175 58.5508 7.23057 58.5592 7.25113C58.5743 7.28721 58.586 7.32429 58.5978 7.3616C58.6096 7.39891 58.6197 7.43667 58.6282 7.47498L58.6517 7.58021C58.6649 7.6469 58.6804 7.73023 58.6896 7.79714L58.7075 7.96068C58.7096 7.98045 58.7142 8.05328 58.7154 8.0763L58.719 8.17627C58.7194 8.20587 58.7182 8.25324 58.7157 8.29334C58.7126 8.34059 58.707 8.39142 58.7041 8.42426L58.6963 8.50971L58.6753 8.65426C58.6687 8.69313 58.663 8.7224 58.6567 8.75089C58.6497 8.78261 58.642 8.81322 58.6309 8.85488L58.6004 8.96771L58.5671 9.08321L58.5353 9.18084L58.4876 9.31857C58.4818 9.33801 58.4559 9.40693 58.4476 9.42548L58.4152 9.50814L58.4112 9.51786L58.3807 9.58745L58.348 9.66095L58.3054 9.75289C58.2922 9.78238 58.277 9.81265 58.2617 9.84091C58.2464 9.8694 58.2268 9.89989 58.2094 9.92715L58.1632 9.99976L58.1169 10.0726L58.0708 10.1451L58.0333 10.2038C58.0051 10.2483 57.9747 10.2914 57.9423 10.3329L57.8437 10.459L57.7343 10.5989C57.6944 10.65 57.6517 10.6987 57.6064 10.7448L57.4909 10.8627C57.4611 10.893 57.4296 10.9216 57.3966 10.9482L57.2155 11.0941C57.1868 11.1174 57.157 11.1394 57.1264 11.1599L56.8758 11.3288C56.8314 11.3587 56.7856 11.3864 56.7385 11.4119L56.533 11.5231C56.485 11.5491 56.4353 11.5721 56.3843 11.5918L56.089 11.7061C56.0439 11.7235 55.9983 11.7389 55.9518 11.7522L55.7117 11.821C55.6698 11.8331 55.6275 11.8435 55.5849 11.8521L55.3455 11.9005C55.3025 11.9093 55.2592 11.9165 55.2158 11.9222L55.0529 11.9439C54.9879 11.951 54.9458 11.9542 54.8573 11.9595L54.623 11.9648H52.3535L52.0156 9.88961H54.6295C54.6427 9.88961 54.6559 9.88928 54.6691 9.8885L54.7771 9.88269C54.7983 9.88157 54.8194 9.87967 54.8406 9.8771L54.9692 9.86158C54.9986 9.85811 55.0275 9.85309 55.0563 9.8465L55.1732 9.81991C55.2024 9.81321 55.2311 9.80528 55.2595 9.79589L55.3794 9.75657L55.5578 9.69648C55.5821 9.68821 55.6061 9.67905 55.6297 9.66888L55.7806 9.60421C55.823 9.58611 55.8636 9.56444 55.9022 9.5393L55.9781 9.49016C55.9993 9.47642 56.0198 9.46145 56.0394 9.44558L56.1304 9.37231C56.1458 9.35991 56.1607 9.34684 56.1751 9.33321L56.2576 9.25479C56.2736 9.23971 56.2889 9.22374 56.3035 9.2072L56.3699 9.13169C56.398 9.09974 56.4232 9.06545 56.4453 9.02914L56.49 8.9562C56.5068 8.92839 56.522 8.89946 56.5351 8.86963L56.5628 8.80707C56.5731 8.78362 56.5821 8.7596 56.5897 8.73502L56.6175 8.64555L56.6284 8.54769L56.6227 8.42392L56.6013 8.31568L56.5784 8.25067C56.5677 8.21973 56.5535 8.1899 56.5363 8.16197C56.5061 8.11282 56.4674 8.06948 56.422 8.03418L56.4078 8.02312C56.3814 8.00257 56.3533 7.98459 56.3236 7.96939L56.2537 7.93342C56.2287 7.92069 56.2032 7.90941 56.1771 7.89969L56.0219 7.84138C56.0004 7.83334 55.9785 7.8263 55.9565 7.82027L55.7609 7.7662L55.3269 7.6421L54.8847 7.50693L54.6281 7.42851L54.3169 7.31793C54.3 7.31189 54.2834 7.30519 54.2669 7.29804L54.0207 7.18935L53.7981 7.08144C53.7863 7.07586 53.7749 7.06983 53.7635 7.06357L53.6268 6.98795C53.6145 6.98125 53.6024 6.9741 53.5907 6.96672L53.4979 6.9083C53.4811 6.8978 53.4649 6.88652 53.4491 6.87468L53.3447 6.79637C53.3214 6.77895 53.2994 6.76018 53.2782 6.74041L53.2009 6.66702C53.1736 6.64121 53.1482 6.61351 53.1251 6.58402L53.0723 6.51744C53.0595 6.50113 53.0472 6.48438 53.0355 6.46718L52.9938 6.40563C52.9751 6.37792 52.958 6.34944 52.9424 6.31995L52.8929 6.226C52.8814 6.20422 52.8709 6.18199 52.8611 6.1592L52.8262 6.07777C52.8161 6.05398 52.8071 6.02962 52.7992 6.00505L52.772 5.91993C52.7628 5.89111 52.7552 5.86184 52.749 5.83235L52.7233 5.70702L52.7002 5.57543C52.6956 5.54985 52.6922 5.52404 52.69 5.49824L52.6834 5.42463C52.6809 5.39413 52.68 5.36341 52.6812 5.33269L52.6864 5.19038L52.6978 5.04952C52.6995 5.03008 52.7017 5.01076 52.7049 4.99154L52.7255 4.86375C52.7292 4.84074 52.7339 4.81795 52.7399 4.79539L52.7663 4.69385L52.8031 4.56863C52.8172 4.52059 52.865 4.37638 52.8847 4.32533L52.9506 4.17486L53.0003 4.06628L53.0874 3.89649L53.1568 3.77161C53.1804 3.72569 53.2307 3.64046 53.2587 3.59656L53.342 3.4643C53.4096 3.36611 53.4802 3.26971 53.5532 3.17554L53.5849 3.13466C53.6784 3.01413 53.7767 2.89762 53.8799 2.78536C53.9413 2.71856 54.0065 2.65522 54.0749 2.59568L54.1869 2.49816C54.2123 2.47615 54.2382 2.45493 54.2649 2.4346L54.3514 2.36657L54.4483 2.29441C54.4756 2.27352 54.5073 2.25263 54.5406 2.23141C54.575 2.20951 54.6066 2.18974 54.6467 2.16651L54.7542 2.10507L54.8596 2.04687L54.8609 2.0462C54.9173 2.01459 55.0138 1.9708 55.0736 1.94611L55.2395 1.87719C55.3169 1.84513 55.3964 1.81877 55.4776 1.7981L55.6975 1.74236C55.743 1.73085 55.7888 1.72114 55.8374 1.70963L55.9685 1.68695L56.1104 1.66573C56.1506 1.65869 56.1912 1.65322 56.2319 1.64909C56.4366 1.62831 56.6422 1.61792 56.8479 1.61792H59.2823L58.7824 3.72726H56.5391Z" fill="black"/>
<path d="M60.8591 1.61388L60.3623 3.71842L67.414 3.73038L67.9272 1.6258L60.8591 1.61388Z" fill="black"/>
<path d="M60.7861 11.964H62.8783L64.7403 4.50049H62.6481L60.7861 11.964Z" fill="black"/>
<path d="M27.5786 7.85111H34.1511L34.6769 5.76422H28.1112L27.5786 7.85111Z" fill="#005CA8"/>
<path d="M25.8428 3.72726H35.1526L35.6814 1.61792H26.3814L25.8428 3.72726Z" fill="#005CA8"/>
<path d="M18.1255 11.9759H33.1306L33.6613 9.88898L18.6659 9.88954L18.1255 11.9759Z" fill="#005CA8"/>
</svg>
