<svg width="24" height="16" viewBox="0 0 24 16" fill="none" xmlns="http://www.w3.org/2000/svg">
<path d="M19 16H6C4.49267 16.0009 3.04022 15.4344 1.93152 14.4132C0.822827 13.392 0.139115 11.9909 0.0163681 10.4886C-0.106379 8.98629 0.340833 7.4928 1.26906 6.30517C2.19729 5.11755 3.53852 4.32281 5.026 4.07902C5.72322 2.84246 6.73623 1.81318 7.96151 1.09635C9.1868 0.379516 10.5804 0.000839967 12 -0.000984711C13.8021 -0.00756974 15.5526 0.600957 16.962 1.72402C18.3461 2.82187 19.3301 4.34499 19.762 6.05801C21.0078 6.24943 22.1353 6.90428 22.9189 7.89148C23.7025 8.87869 24.0843 10.1254 23.988 11.3821C23.8917 12.6388 23.3243 13.8128 22.3994 14.6691C21.4745 15.5253 20.2604 16.0007 19 16ZM12 2.00002C10.935 2.00127 9.8894 2.28532 8.97015 2.82314C8.0509 3.36095 7.29095 4.13323 6.768 5.06102L6.3 5.90001L5.35 6.05502C4.36127 6.22067 3.47079 6.75156 2.85487 7.54256C2.23896 8.33357 1.94253 9.32701 2.02428 10.3262C2.10602 11.3254 2.55998 12.2574 3.29627 12.9378C4.03256 13.6182 4.99749 13.9973 6 14H19C19.7563 14.0008 20.4849 13.7159 21.0401 13.2024C21.5953 12.6889 21.9361 11.9847 21.9942 11.2307C22.0524 10.4767 21.8236 9.72851 21.3537 9.13596C20.8838 8.54341 20.2074 8.1502 19.46 8.03502L18.144 7.83502L17.822 6.54302C17.499 5.24399 16.75 4.09066 15.6947 3.26718C14.6394 2.4437 13.3386 1.99756 12 2.00002ZM12 12L8 8.00002H10.55V5.00002H13.45V8.00002H16L12 12Z" fill="#16181B"/>
</svg>
