<svg width="20" height="21" viewBox="0 0 20 21" fill="none" xmlns="http://www.w3.org/2000/svg">
<path d="M9.99995 0.5C10.8233 0.499884 11.617 0.807566 12.2251 1.36263C12.8332 1.9177 13.2119 2.68005 13.2868 3.5H18.4C18.628 3.50007 18.8475 3.58669 19.0141 3.74237C19.1807 3.89804 19.282 4.11116 19.2976 4.33866C19.3131 4.56615 19.2417 4.79107 19.0978 4.96796C18.9539 5.14485 18.7482 5.26052 18.5223 5.2916L18.4 5.3H17.7003L16.1799 18.476C16.1122 19.0609 15.8319 19.6005 15.3922 19.9921C14.9526 20.3837 14.3843 20.6001 13.7956 20.6H6.20435C5.61557 20.6001 5.0473 20.3837 4.60765 19.9921C4.16801 19.6005 3.88766 19.0609 3.81995 18.476L2.29835 5.3H1.59995C1.38247 5.29999 1.17234 5.22123 1.00843 5.07828C0.844528 4.93533 0.737929 4.73786 0.708351 4.5224L0.699951 4.4C0.69996 4.18251 0.778722 3.97239 0.921672 3.80848C1.06462 3.64458 1.26209 3.53798 1.47755 3.5084L1.59995 3.5H6.71315C6.788 2.68005 7.16667 1.9177 7.7748 1.36263C8.38293 0.807566 9.17659 0.499884 9.99995 0.5ZM8.19995 8C7.90595 8 7.65995 8.186 7.60955 8.4308L7.59995 8.5256V15.8756L7.60955 15.9692C7.65995 16.214 7.90595 16.4 8.19995 16.4C8.49395 16.4 8.73995 16.214 8.79035 15.9692L8.79995 15.8744V8.5268L8.79035 8.4308C8.73995 8.1872 8.49395 8 8.19995 8ZM11.8 8C11.506 8 11.26 8.186 11.2096 8.4308L11.2 8.5256V15.8756L11.2096 15.9692C11.26 16.214 11.506 16.4 11.8 16.4C12.094 16.4 12.3399 16.214 12.3904 15.9692L12.4 15.8744V8.5268L12.3904 8.4308C12.3399 8.1872 12.094 8.0012 11.8 8.0012V8ZM9.99995 2.3C9.27395 2.3 8.66795 2.816 8.52995 3.5H11.47C11.3308 2.816 10.726 2.3 9.99995 2.3Z" fill="black"/>
</svg>
