<svg width="24" height="20" viewBox="0 0 24 20" fill="none" xmlns="http://www.w3.org/2000/svg">
<path d="M0.75 12.814C0.948912 12.814 1.13968 12.8875 1.28033 13.0183C1.42098 13.1491 1.5 13.3266 1.5 13.5116V17C1.5 17.3701 1.65804 17.725 1.93934 17.9867C2.22064 18.2484 2.60218 18.3954 3 18.3954H21C21.3978 18.3954 21.7794 18.2484 22.0607 17.9867C22.342 17.725 22.5 17.3701 22.5 17V13.5116C22.5 13.3266 22.579 13.1491 22.7197 13.0183C22.8603 12.8875 23.0511 12.814 23.25 12.814C23.4489 12.814 23.6397 12.8875 23.7803 13.0183C23.921 13.1491 24 13.3266 24 13.5116V17C24 17.7401 23.6839 18.45 23.1213 18.9733C22.5587 19.4967 21.7956 19.7907 21 19.7907H3C2.20435 19.7907 1.44129 19.4967 0.87868 18.9733C0.316071 18.45 0 17.7401 0 17V13.5116C0 13.3266 0.0790176 13.1491 0.21967 13.0183C0.360322 12.8875 0.551088 12.814 0.75 12.814V12.814Z" fill="#16181B"/>
<path d="M11.4687 15.5405C11.5384 15.6055 11.6212 15.657 11.7123 15.6922C11.8034 15.7274 11.9011 15.7455 11.9997 15.7455C12.0984 15.7455 12.1961 15.7274 12.2872 15.6922C12.3783 15.657 12.4611 15.6055 12.5307 15.5405L17.0307 11.3545C17.1716 11.2235 17.2507 11.0458 17.2507 10.8605C17.2507 10.6752 17.1716 10.4976 17.0307 10.3665C16.8899 10.2355 16.6989 10.1619 16.4997 10.1619C16.3006 10.1619 16.1096 10.2355 15.9687 10.3665L12.7497 13.3624V1.09306C12.7497 0.908025 12.6707 0.730569 12.5301 0.59973C12.3894 0.46889 12.1986 0.395386 11.9997 0.395386C11.8008 0.395386 11.61 0.46889 11.4694 0.59973C11.3287 0.730569 11.2497 0.908025 11.2497 1.09306V13.3624L8.03073 10.3665C7.8899 10.2355 7.69889 10.1619 7.49973 10.1619C7.30056 10.1619 7.10956 10.2355 6.96873 10.3665C6.8279 10.4976 6.74878 10.6752 6.74878 10.8605C6.74878 11.0458 6.8279 11.2235 6.96873 11.3545L11.4687 15.5405V15.5405Z" fill="#16181B"/>
</svg>
