<svg width="128" height="75" viewBox="0 0 128 75" fill="none" xmlns="http://www.w3.org/2000/svg">
<path d="M122 0.5H6C2.96243 0.5 0.5 2.96243 0.5 6V69C0.5 72.0376 2.96243 74.5 6 74.5H122C125.038 74.5 127.5 72.0376 127.5 69V6C127.5 2.96243 125.038 0.5 122 0.5Z" fill="white" stroke="#FF6B01"/>
<path d="M52.75 39.8139C52.9489 39.8139 53.1397 39.8874 53.2803 40.0182C53.421 40.1491 53.5 40.3265 53.5 40.5116V43.9999C53.5 44.37 53.658 44.7249 53.9393 44.9866C54.2206 45.2483 54.6022 45.3953 55 45.3953H73C73.3978 45.3953 73.7794 45.2483 74.0607 44.9866C74.342 44.7249 74.5 44.37 74.5 43.9999V40.5116C74.5 40.3265 74.579 40.1491 74.7197 40.0182C74.8603 39.8874 75.0511 39.8139 75.25 39.8139C75.4489 39.8139 75.6397 39.8874 75.7803 40.0182C75.921 40.1491 76 40.3265 76 40.5116V43.9999C76 44.7401 75.6839 45.4499 75.1213 45.9733C74.5587 46.4966 73.7956 46.7906 73 46.7906H55C54.2044 46.7906 53.4413 46.4966 52.8787 45.9733C52.3161 45.4499 52 44.7401 52 43.9999V40.5116C52 40.3265 52.079 40.1491 52.2197 40.0182C52.3603 39.8874 52.5511 39.8139 52.75 39.8139Z" fill="#FF6B01"/>
<path d="M63.4687 42.5404C63.5384 42.6054 63.6212 42.657 63.7123 42.6921C63.8034 42.7273 63.9011 42.7454 63.9997 42.7454C64.0984 42.7454 64.1961 42.7273 64.2872 42.6921C64.3783 42.657 64.4611 42.6054 64.5307 42.5404L69.0307 38.3544C69.1716 38.2234 69.2507 38.0457 69.2507 37.8604C69.2507 37.6752 69.1716 37.4975 69.0307 37.3665C68.8899 37.2355 68.6989 37.1619 68.4997 37.1619C68.3006 37.1619 68.1096 37.2355 67.9687 37.3665L64.7497 40.3623V28.093C64.7497 27.908 64.6707 27.7305 64.5301 27.5997C64.3894 27.4688 64.1986 27.3953 63.9997 27.3953C63.8008 27.3953 63.61 27.4688 63.4694 27.5997C63.3287 27.7305 63.2497 27.908 63.2497 28.093V40.3623L60.0307 37.3665C59.8899 37.2355 59.6989 37.1619 59.4997 37.1619C59.3006 37.1619 59.1096 37.2355 58.9687 37.3665C58.8279 37.4975 58.7488 37.6752 58.7488 37.8604C58.7488 38.0457 58.8279 38.2234 58.9687 38.3544L63.4687 42.5404Z" fill="#FF6B01"/>
</svg>
