<svg width="47" height="47" viewBox="0 0 47 47" fill="none" xmlns="http://www.w3.org/2000/svg">
<path fill-rule="evenodd" clip-rule="evenodd" d="M2.38672 12.8975V7.61914C2.38672 4.73396 4.73401 2.38672 7.61914 2.38672H12.8975C13.5565 2.38672 14.0908 1.85242 14.0908 1.19336C14.0908 0.534304 13.5565 0 12.8975 0H7.61914C3.41796 0 0 3.41792 0 7.61914V12.8975C0 13.5565 0.534304 14.0908 1.19336 14.0908C1.85242 14.0908 2.38672 13.5565 2.38672 12.8975ZM12.8975 44.6133C13.5565 44.6133 14.0908 45.1476 14.0908 45.8066C14.0908 46.4657 13.5565 47 12.8975 47H7.61914C3.41796 47 0 43.582 0 39.3809V34.1025C0 33.4435 0.534304 32.9092 1.19336 32.9092C1.85242 32.9092 2.38672 33.4435 2.38672 34.1025V39.3809C2.38672 42.266 4.73401 44.6133 7.61914 44.6133H12.8975ZM47 34.1025V39.3809C47 43.582 43.582 47 39.3809 47H34.1025C33.4435 47 32.9092 46.4657 32.9092 45.8066C32.9092 45.1476 33.4435 44.6133 34.1025 44.6133H39.3809C42.266 44.6133 44.6133 42.266 44.6133 39.3809V34.1025C44.6133 33.4435 45.1476 32.9092 45.8066 32.9092C46.4657 32.9092 47 33.4435 47 34.1025ZM47 7.61914V12.8975C47 13.5565 46.4657 14.0908 45.8066 14.0908C45.1476 14.0908 44.6133 13.5565 44.6133 12.8975V7.61914C44.6133 4.73396 42.266 2.38672 39.3809 2.38672H34.1025C33.4435 2.38672 32.9092 1.85242 32.9092 1.19336C32.9092 0.534304 33.4435 0 34.1025 0H39.3809C43.582 0 47 3.41792 47 7.61914ZM31.7355 34.7376C32.2383 34.2732 32.2693 33.4891 31.8049 32.9863C31.3405 32.4836 30.5565 32.4525 30.0537 32.9169C28.2647 34.5694 25.9372 35.4795 23.5 35.4795C21.0627 35.4795 18.7352 34.5694 16.9462 32.9169C16.4434 32.4525 15.6595 32.4836 15.195 32.9863C14.7306 33.4891 14.7617 34.2732 15.2645 34.7376C17.5128 36.8143 20.4375 37.958 23.5 37.958C26.5625 37.958 29.4871 36.8143 31.7355 34.7376ZM25.9785 17.7168V26.5293C25.9785 28.2756 24.5578 29.6963 22.8115 29.6963H21.8018C21.1173 29.6963 20.5625 29.1415 20.5625 28.457C20.5625 27.7726 21.1173 27.2178 21.8018 27.2178H22.8115C23.1911 27.2178 23.5 26.9089 23.5 26.5293V17.7168C23.5 17.0324 24.0548 16.4775 24.7393 16.4775C25.4237 16.4775 25.9785 17.0324 25.9785 17.7168ZM34.5156 21.1821V17.6479C34.5156 17.0016 33.9916 16.4775 33.3452 16.4775C32.6988 16.4775 32.1748 17.0016 32.1748 17.6479V21.1821C32.1748 21.8285 32.6988 22.3525 33.3452 22.3525C33.9916 22.3525 34.5156 21.8285 34.5156 21.1821ZM12.7598 21.1821C12.7598 21.8285 13.2838 22.3525 13.9302 22.3525C14.5766 22.3525 15.1006 21.8285 15.1006 21.1821V17.6479C15.1006 17.0016 14.5766 16.4775 13.9302 16.4775C13.2838 16.4775 12.7598 17.0016 12.7598 17.6479V21.1821Z" fill="#16181B"/>
</svg>
