<svg width="20" height="21" viewBox="0 0 20 21" fill="none" xmlns="http://www.w3.org/2000/svg">
<path d="M2.62602 7.15282C3.02564 6.19952 3.60645 5.33345 4.33602 4.60297C5.06398 3.87041 5.92747 3.28752 6.87802 2.88701C8.83751 2.0701 11.0378 2.05534 13.008 2.84586C13.0278 3.4956 13.2991 4.11202 13.7644 4.5643C14.2296 5.01657 14.8522 5.2691 15.5 5.26828C16.886 5.26828 18 4.15039 18 2.75957C18 1.36874 16.886 0.250854 15.5 0.250854C14.811 0.250854 14.188 0.527816 13.737 0.97838C11.306 0.00199031 8.51402 0.0170426 6.10202 1.03759C4.91202 1.53933 3.84202 2.26184 2.92202 3.18404C1.9931 4.11648 1.25679 5.22381 0.755361 6.44249C0.25393 7.66118 -0.002759 8.96722 2.23631e-05 10.2857H2.00002C2.00002 9.19591 2.21102 8.14225 2.62602 7.15282ZM17.373 13.4186C16.972 14.3739 16.396 15.2329 15.663 15.9684C14.93 16.704 14.074 17.282 13.121 17.6844C11.1615 18.5013 8.96123 18.5161 6.99102 17.7255C6.97176 17.0758 6.70074 16.4592 6.23557 16.0069C5.77041 15.5545 5.14778 15.302 4.50002 15.3031C3.11402 15.3031 2.00002 16.421 2.00002 17.8118C2.00002 19.2027 3.11402 20.3205 4.50002 20.3205C5.18902 20.3205 5.81202 20.0436 6.26302 19.593C7.45058 20.074 8.71936 20.3211 10 20.3205C11.9666 20.3243 13.8904 19.7452 15.5302 18.6559C17.1699 17.5665 18.4525 16.0154 19.217 14.1973C19.7365 12.9592 20.0028 11.629 20 10.2857H18C18.0025 11.3616 17.7893 12.4271 17.373 13.4186Z" fill="#FF6B01"/>
<path d="M9.99991 5.7319C7.49791 5.7319 5.46191 7.775 5.46191 10.2857C5.46191 12.7964 7.49791 14.8395 9.99991 14.8395C12.5019 14.8395 14.5379 12.7964 14.5379 10.2857C14.5379 7.775 12.5019 5.7319 9.99991 5.7319Z" fill="#FF6B01"/>
</svg>
