<svg width="282" height="227" viewBox="0 0 282 227" fill="none" xmlns="http://www.w3.org/2000/svg">
<g clip-path="url(#clip0)">
<path d="M270.829 0.000452623H186.179C182.094 0.000253164 178.13 1.38573 174.94 3.92913C171.749 6.47253 169.522 10.0225 168.624 13.9954L125.852 203.144C125.386 205.208 125.377 207.347 125.828 209.414C126.279 211.481 127.177 213.424 128.461 215.108C129.745 216.791 131.382 218.175 133.259 219.161C135.135 220.147 137.206 220.712 139.324 220.816L226.346 225.091C231.005 225.319 235.589 223.85 239.242 220.957C242.895 218.064 245.368 213.944 246.198 209.367L270.462 75.6372L272.267 76.1514L276.911 50.8043L275.053 50.3413L281.826 13.0123C282.116 11.4133 282.049 9.77027 281.629 8.20019C281.21 6.63011 280.447 5.1717 279.398 3.92892C278.348 2.68615 277.036 1.68963 275.555 1.0104C274.074 0.331171 272.462 -0.0140319 270.832 -0.000599054L270.829 0.000452623Z" fill="#3F3D56"/>
<path d="M197.321 4.07788H187.441C184.604 4.07791 181.851 5.04549 179.641 6.82C177.431 8.59451 175.896 11.0692 175.291 13.8333L134.235 201.439C133.999 202.519 133.999 203.638 134.236 204.718C134.473 205.798 134.941 206.814 135.608 207.697C136.274 208.581 137.125 209.31 138.1 209.835C139.076 210.361 140.154 210.67 141.261 210.742L227.999 216.411C230.446 216.57 232.867 215.826 234.799 214.321C236.73 212.815 238.039 210.652 238.473 208.246L273.506 14.3374C273.733 13.0823 273.681 11.793 273.353 10.5603C273.026 9.32758 272.431 8.18161 271.61 7.20321C270.79 6.22482 269.764 5.43784 268.605 4.89782C267.447 4.35781 266.183 4.07791 264.904 4.07788H255.531C254.624 4.07785 253.742 4.37602 253.021 4.92621C252.301 5.4764 251.783 6.24793 251.547 7.12135C251.339 7.8927 250.881 8.57404 250.245 9.05983C249.609 9.54563 248.83 9.80876 248.029 9.80846H203.53C201.961 9.80841 200.451 9.2182 199.3 8.15579C198.149 7.09339 197.442 5.63706 197.321 4.07788Z" fill="white"/>
<path d="M245.271 135.23C245.439 135.236 245.604 135.181 245.736 135.076C245.867 134.97 245.956 134.821 245.987 134.656L265.168 29.1087C265.187 29.0083 265.183 28.9053 265.158 28.8065C265.132 28.7077 265.086 28.6155 265.022 28.5362C264.958 28.4576 264.878 28.3939 264.786 28.3497C264.695 28.3055 264.595 28.2819 264.494 28.2805L177.225 27.2528H177.217C177.058 27.2542 176.905 27.3091 176.782 27.4086C176.659 27.5082 176.574 27.6464 176.54 27.8007L153.927 129.922C153.905 130.022 153.905 130.125 153.926 130.225C153.948 130.324 153.991 130.418 154.052 130.5C154.113 130.581 154.191 130.648 154.28 130.695C154.37 130.743 154.469 130.77 154.57 130.775L245.271 135.23Z" fill="#E6E6E6"/>
<path d="M169.539 142.054C169.46 142.055 169.383 142.081 169.32 142.131C169.258 142.18 169.215 142.249 169.197 142.326L168.379 145.818C168.368 145.867 168.367 145.918 168.377 145.968C168.387 146.018 168.408 146.064 168.438 146.105C168.468 146.146 168.507 146.18 168.552 146.204C168.596 146.229 168.645 146.244 168.696 146.247L214.864 149.519C214.949 149.524 215.034 149.499 215.102 149.446C215.17 149.394 215.217 149.32 215.234 149.236L216.02 145.195C216.03 145.146 216.029 145.096 216.017 145.047C216.005 144.999 215.983 144.953 215.953 144.914C215.922 144.874 215.883 144.842 215.839 144.819C215.795 144.795 215.746 144.782 215.696 144.779L169.56 142.055L169.539 142.054Z" fill="#E6E6E6"/>
<path d="M225.63 162.49C225.713 162.497 225.796 162.473 225.864 162.425C225.932 162.376 225.98 162.305 226 162.224L227 158.175C227.013 158.126 227.014 158.074 227.004 158.024C226.994 157.974 226.973 157.926 226.943 157.885C226.913 157.844 226.874 157.809 226.829 157.785C226.785 157.76 226.735 157.745 226.684 157.741L167.725 153.63C167.645 153.624 167.565 153.645 167.499 153.691C167.433 153.737 167.385 153.803 167.363 153.88L166.323 157.379C166.308 157.429 166.305 157.482 166.313 157.533C166.321 157.585 166.341 157.634 166.37 157.677C166.4 157.72 166.439 157.756 166.484 157.782C166.529 157.808 166.58 157.824 166.632 157.828L225.63 162.49Z" fill="#E6E6E6"/>
<path d="M222.464 175.468C222.547 175.474 222.63 175.451 222.698 175.403C222.766 175.354 222.814 175.283 222.834 175.202L223.834 171.153C223.847 171.103 223.848 171.052 223.838 171.002C223.828 170.951 223.807 170.904 223.777 170.863C223.747 170.821 223.708 170.787 223.663 170.762C223.619 170.738 223.569 170.723 223.518 170.719L164.559 166.608C164.479 166.602 164.399 166.623 164.333 166.669C164.267 166.714 164.219 166.781 164.197 166.858L163.157 170.357C163.142 170.407 163.139 170.46 163.147 170.511C163.155 170.563 163.175 170.612 163.204 170.655C163.234 170.698 163.273 170.734 163.318 170.76C163.363 170.786 163.414 170.802 163.466 170.806L222.464 175.468Z" fill="#E6E6E6"/>
<path d="M120.24 221.156C120.24 224.091 93.2898 224.404 60.12 226.471C26.9798 228.536 0 224.091 0 221.156C0 218.22 27.1057 212.314 60.12 215.841C93.2898 219.384 120.24 218.22 120.24 221.156Z" fill="#E6E6E6"/>
<path d="M195.309 197.654C195.393 197.662 195.478 197.64 195.547 197.591C195.615 197.543 195.664 197.471 195.684 197.389L197.799 188.953C197.812 188.904 197.813 188.852 197.804 188.802C197.794 188.752 197.774 188.705 197.744 188.664C197.715 188.622 197.676 188.588 197.632 188.563C197.588 188.538 197.538 188.522 197.488 188.518L161.281 185.482C161.196 185.476 161.113 185.501 161.044 185.551C160.976 185.601 160.928 185.673 160.908 185.755L159.104 193.852C159.093 193.9 159.092 193.951 159.103 193.999C159.113 194.048 159.133 194.094 159.163 194.134C159.192 194.175 159.23 194.208 159.273 194.233C159.316 194.257 159.365 194.273 159.414 194.277L195.309 197.654Z" fill="#FF6B01"/>
<path d="M49.1157 163.277C49.5716 162.966 49.9534 162.558 50.2343 162.084C50.5152 161.609 50.6883 161.079 50.7413 160.531C50.7944 159.982 50.7262 159.429 50.5414 158.909C50.3567 158.39 50.06 157.918 49.6722 157.525L51.1382 124.899L43.6746 125.734L44.1084 157.647C43.4894 158.34 43.147 159.235 43.146 160.163C43.145 161.09 43.4855 161.986 44.103 162.68C44.7205 163.374 45.572 163.818 46.496 163.928C47.42 164.038 48.3523 163.806 49.116 163.276L49.1157 163.277Z" fill="#A0616A"/>
<path d="M62.7314 218.506L66.9795 219.251L71.178 203.269L65.612 202.17L62.7314 218.506Z" fill="#A0616A"/>
<path d="M74.4796 224.619L61.1288 222.279L62.0356 217.137L70.2281 218.573C71.5961 218.812 72.8126 219.584 73.6099 220.718C74.4072 221.852 74.72 223.256 74.4795 224.62L74.4796 224.619Z" fill="#16181B"/>
<path d="M51.072 220.626H55.3851L57.4369 204.04H51.0713L51.072 220.626Z" fill="#A0616A"/>
<path d="M63.7017 224.62L50.1462 224.621L50.1459 219.399L58.464 219.398C59.8531 219.398 61.1852 219.948 62.1675 220.928C63.1497 221.907 63.7016 223.235 63.7017 224.62Z" fill="#16181B"/>
<path d="M69.0666 214.681C68.9994 214.681 68.9322 214.677 68.8654 214.669L63.7888 214.253C63.5577 214.226 63.3345 214.152 63.1328 214.036C62.9311 213.921 62.7551 213.765 62.6155 213.579C62.4759 213.394 62.3756 213.182 62.3207 212.956C62.2658 212.731 62.2574 212.497 62.2961 212.268L67.3357 187.476L64.1695 170.825C64.1437 170.689 64.0697 170.568 63.9611 170.483C63.8525 170.398 63.7167 170.355 63.5787 170.361C63.4408 170.368 63.3099 170.425 63.2104 170.52C63.1108 170.616 63.0492 170.744 63.037 170.881L58.3717 213.191C58.3282 213.637 58.1127 214.048 57.7707 214.338C57.4288 214.629 56.9871 214.775 56.5388 214.747L51.756 214.57C51.3369 214.54 50.9431 214.359 50.6491 214.059C50.3551 213.76 50.1812 213.364 50.1602 212.946L50.5422 161.817L75.3379 158.727L77.0702 185.399L77.0632 185.427L70.7338 213.373C70.6428 213.746 70.429 214.077 70.1268 214.314C69.8245 214.551 69.4512 214.68 69.0666 214.681Z" fill="#16181B"/>
<path d="M58.7194 103.758C63.4915 103.758 67.3601 99.9009 67.3601 95.1431C67.3601 90.3852 63.4915 86.5283 58.7194 86.5283C53.9472 86.5283 50.0786 90.3852 50.0786 95.1431C50.0786 99.9009 53.9472 103.758 58.7194 103.758Z" fill="#A0616A"/>
<path d="M66.8604 165.708C65.509 165.716 64.1835 165.338 63.0408 164.618C58.8543 162.01 54.101 163.047 51.6398 163.897C51.3955 163.982 51.1351 164.011 50.8779 163.982C50.6208 163.953 50.3736 163.866 50.1548 163.728C49.9386 163.593 49.7559 163.41 49.6204 163.195C49.4849 162.979 49.4001 162.735 49.3724 162.482L44.8971 122.628C44.147 115.951 48.1815 109.673 54.4901 107.7C54.7273 107.626 54.9682 107.556 55.2131 107.49C57.1763 106.959 59.2322 106.864 61.2363 107.211C63.2404 107.557 65.1439 108.338 66.8129 109.497C68.513 110.669 69.9348 112.198 70.9783 113.977C72.0217 115.756 72.6614 117.741 72.8524 119.793L76.6206 159.914C76.6463 160.174 76.6111 160.436 76.5179 160.68C76.4246 160.924 76.2759 161.143 76.0834 161.32C74.762 162.537 70.928 165.708 66.8604 165.708Z" fill="#FF6B01"/>
<path d="M53.2311 131.175L43.1343 130.068C42.8469 130.036 42.5698 129.943 42.3217 129.796C42.0737 129.648 41.8605 129.448 41.6967 129.211C41.533 128.973 41.4224 128.703 41.3727 128.419C41.323 128.136 41.3353 127.844 41.4087 127.566L43.979 117.799C44.0547 117.066 44.2752 116.357 44.6277 115.71C44.9802 115.063 45.4577 114.493 46.0327 114.031C46.6077 113.57 47.2688 113.227 47.9776 113.021C48.6865 112.816 49.4291 112.753 50.1626 112.835C50.8961 112.918 51.6059 113.145 52.251 113.502C52.8961 113.86 53.4637 114.342 53.921 114.919C54.3783 115.497 54.7163 116.159 54.9153 116.868C55.1143 117.577 55.1705 118.318 55.0806 119.048L55.4623 129.106C55.4732 129.394 55.4218 129.681 55.3114 129.947C55.201 130.214 55.0344 130.453 54.8228 130.65C54.6111 130.846 54.3596 130.995 54.0852 131.086C53.8107 131.176 53.5199 131.207 53.2326 131.175L53.2311 131.175Z" fill="#FF6B01"/>
<path d="M76.5797 161.88C76.9944 161.516 77.3241 161.066 77.5454 160.561C77.7667 160.057 77.8744 159.51 77.8608 158.959C77.8472 158.408 77.7126 157.867 77.4666 157.374C77.2206 156.881 76.8691 156.447 76.4368 156.104L73.9485 123.54L66.6348 125.181L70.9268 156.894C70.3961 157.656 70.1643 158.586 70.2754 159.507C70.3866 160.428 70.8329 161.276 71.5297 161.891C72.2266 162.506 73.1255 162.845 74.0561 162.843C74.9867 162.841 75.8841 162.498 76.5783 161.88H76.5797Z" fill="#A0616A"/>
<path d="M63.831 129.128C63.6193 128.932 63.4526 128.692 63.3422 128.426C63.2318 128.159 63.1804 127.872 63.1914 127.584L63.5731 117.527C63.4908 116.8 63.5529 116.064 63.7558 115.361C63.9587 114.658 64.2985 114.002 64.7557 113.43C65.213 112.858 65.7787 112.382 66.4207 112.028C67.0626 111.674 67.7682 111.45 68.4972 111.368C69.2261 111.286 69.9641 111.347 70.6691 111.55C71.374 111.752 72.0321 112.091 72.6058 112.547C73.1794 113.003 73.6574 113.567 74.0124 114.207C74.3674 114.847 74.5924 115.55 74.6747 116.277L77.245 126.044C77.3184 126.323 77.3307 126.614 77.281 126.898C77.2312 127.182 77.1207 127.452 76.957 127.689C76.7932 127.927 76.58 128.126 76.332 128.274C76.0839 128.422 75.8067 128.515 75.5194 128.546L65.4226 129.653C65.1351 129.685 64.8443 129.654 64.5698 129.563C64.2954 129.472 64.0439 129.324 63.8324 129.127L63.831 129.128Z" fill="#FF6B01"/>
<path d="M58.205 104.082C58.0511 104.082 57.8976 104.065 57.7477 104.029L57.7037 104.019C50.1068 102.861 48.4276 98.4729 48.0593 96.6409C47.6779 94.744 48.112 92.9131 49.0936 92.2018C48.5585 90.5182 48.6443 89.0236 49.3493 87.7606C50.5807 85.5579 53.2477 84.8143 53.6062 84.7217C55.7375 83.1542 58.2874 84.2004 58.7514 84.4126C62.8742 82.8921 64.4507 84.1576 64.7349 84.4404C66.5777 84.7704 67.701 85.48 68.0739 86.5505C68.7744 88.5606 66.5594 91.0611 66.4648 91.1667L66.4155 91.2214L63.1156 91.3782C62.8024 91.3931 62.4959 91.4735 62.216 91.6141C61.936 91.7547 61.6888 91.9524 61.4904 92.1944C61.292 92.4364 61.1468 92.7172 61.0643 93.0188C60.9818 93.3203 60.9638 93.6358 61.0114 93.9447C61.1007 94.3432 61.2135 94.7361 61.3491 95.1214C61.912 96.8773 62.3342 98.3775 61.7903 98.9478C61.6669 99.0581 61.5149 99.1316 61.3516 99.1598C61.1882 99.188 61.0203 99.1699 60.8668 99.1074C60.3507 98.9699 60.0007 98.9987 59.8262 99.1933C59.5553 99.4946 59.638 100.258 60.0591 101.342C60.1912 101.684 60.2268 102.057 60.1619 102.418C60.097 102.78 59.9342 103.117 59.6911 103.393C59.508 103.608 59.2803 103.781 59.0236 103.9C58.7669 104.019 58.4874 104.081 58.2043 104.082H58.205Z" fill="#16181B"/>
</g>
<defs>
<clipPath id="clip0">
<rect width="282" height="227" fill="white"/>
</clipPath>
</defs>
</svg>
