<svg width="282" height="250" viewBox="0 0 282 250" fill="none" xmlns="http://www.w3.org/2000/svg">
<g clip-path="url(#clip0)">
<path d="M269.508 249.029L269.133 248.889C269.05 248.858 260.838 245.711 256.99 238.577C253.143 231.442 255.027 222.851 255.046 222.765L255.135 222.374L255.51 222.515C255.593 222.546 263.805 225.693 267.653 232.827C271.5 239.962 269.616 248.552 269.597 248.638L269.508 249.029ZM257.606 238.244C260.859 244.277 267.349 247.369 268.993 248.075C269.306 246.312 270.286 239.186 267.037 233.159C263.787 227.134 257.295 224.037 255.65 223.329C255.337 225.092 254.357 232.218 257.606 238.244Z" fill="#3F3D56"/>
<path d="M259.93 236.074C266.844 240.233 269.507 248.495 269.507 248.495C269.507 248.495 260.96 250.013 254.046 245.854C247.133 241.694 244.47 233.432 244.47 233.432C244.47 233.432 253.017 231.914 259.93 236.074Z" fill="#FF6B01"/>
<path d="M148.624 133.64C148.96 133.122 149.4 132.68 149.918 132.344C150.436 132.008 151.019 131.786 151.628 131.691C152.238 131.596 152.861 131.63 153.456 131.793C154.052 131.955 154.606 132.242 155.083 132.634C155.233 132.758 155.375 132.893 155.507 133.038L172.724 130.531L173.682 117.584C173.756 116.591 174.221 115.667 174.975 115.017C175.729 114.366 176.711 114.042 177.704 114.115C178.698 114.189 179.621 114.654 180.271 115.408C180.922 116.162 181.246 117.144 181.173 118.137C181.171 118.16 181.169 118.183 181.167 118.206L179.489 136.374L179.481 136.414C179.262 137.112 178.824 137.722 178.232 138.152C177.64 138.581 176.925 138.809 176.194 138.8L155.942 138.451C155.863 138.571 155.778 138.687 155.688 138.798C155.296 139.275 154.808 139.663 154.255 139.938C153.703 140.213 153.099 140.369 152.482 140.394C151.865 140.419 151.25 140.314 150.677 140.085C150.104 139.856 149.586 139.508 149.156 139.065C149.069 138.976 148.987 138.883 148.909 138.788C148.325 138.069 147.983 137.185 147.932 136.26C147.881 135.336 148.123 134.419 148.624 133.64Z" fill="#FFB7B7"/>
<path d="M183.337 244.031L178.426 244.031L176.09 225.09L183.338 225.09L183.337 244.031Z" fill="#FFB7B7"/>
<path d="M184.589 248.791L168.755 248.79V248.59C168.755 246.956 169.404 245.388 170.56 244.232C171.716 243.077 173.283 242.427 174.918 242.427H174.918L184.589 242.428L184.589 248.791Z" fill="#16181B"/>
<path d="M217.652 239.579L213.004 241.164L204.677 223.991L211.537 221.652L217.652 239.579Z" fill="#FFB7B7"/>
<path d="M220.374 243.68L205.387 248.791L205.323 248.602C204.795 247.055 204.904 245.361 205.625 243.894C206.345 242.427 207.619 241.307 209.166 240.779L209.167 240.779L218.32 237.657L220.374 243.68Z" fill="#16181B"/>
<path d="M188.744 78.4164C188.744 78.4164 183.856 76.8022 180.714 83.259C177.572 89.7157 172.685 96.8182 172.685 96.8182L175.478 97.4639C175.478 97.4639 176.176 92.9441 177.921 92.2984L177.223 98.1095C177.223 98.1095 198.171 104.889 207.597 97.4639L207.248 95.204C207.248 95.204 208.644 95.5268 208.644 97.4639L209.692 96.4954C209.692 96.4954 208.644 94.5583 205.502 91.9756C203.44 90.2804 202.731 87.0554 202.488 85.039C202.294 83.3319 201.562 81.7307 200.398 80.4678C198.31 78.23 194.505 75.8516 188.744 78.4164Z" fill="#16181B"/>
<path d="M190.546 100.975C195.476 100.975 199.473 96.9785 199.473 92.0481C199.473 87.1178 195.476 83.121 190.546 83.121C185.616 83.121 181.619 87.1178 181.619 92.0481C181.619 96.9785 185.616 100.975 190.546 100.975Z" fill="#FFB7B7"/>
<path d="M178.643 108.326L177.02 107.785C177.02 107.785 173.774 109.138 173.774 111.572C173.774 114.007 173.233 123.746 173.233 123.746L180.537 124.557L178.643 108.326Z" fill="#CBCBCB"/>
<path d="M207.694 161.537C207.021 160.782 206.641 159.811 206.623 158.801C206.605 157.79 206.951 156.806 207.597 156.028L203.041 117.869C202.996 116.969 203.31 116.088 203.915 115.419C204.519 114.751 205.363 114.349 206.263 114.303C207.163 114.257 208.044 114.569 208.714 115.172C209.383 115.775 209.787 116.619 209.835 117.518C209.835 117.531 209.836 117.543 209.836 117.556L213.913 155.756C214.061 155.905 214.197 156.064 214.32 156.233C214.647 156.685 214.882 157.197 215.011 157.74C215.14 158.283 215.161 158.846 215.072 159.397C214.984 159.948 214.788 160.476 214.495 160.951C214.202 161.426 213.819 161.839 213.367 162.166C213.32 162.2 213.273 162.233 213.224 162.265C212.701 162.611 212.107 162.837 211.486 162.927C210.865 163.017 210.231 162.968 209.631 162.784C208.882 162.557 208.211 162.125 207.694 161.537Z" fill="#FFB7B7"/>
<path d="M203.521 123.746L210.825 122.934C210.825 122.934 210.284 113.195 210.284 110.761C210.284 108.326 207.038 106.974 207.038 106.974L205.414 107.515L203.521 123.746Z" fill="#CBCBCB"/>
<path d="M179.725 137.258C179.725 137.258 173.503 148.633 173.503 162.43C173.503 176.226 172.962 239.528 172.962 239.528C172.962 239.528 181.078 243.315 185.947 238.717L190.276 168.652L207.318 237.364C207.318 237.364 215.434 238.987 219.221 236.282L211.917 188.4C211.917 188.4 208.942 143.494 200.826 140.247C192.71 137.001 179.725 137.258 179.725 137.258Z" fill="#16181B"/>
<path d="M180.9 92.1045C184.06 89.8174 186.618 87.1831 188.311 84.0495C188.311 84.0495 194.11 90.4935 197.654 90.8157C201.199 91.1379 197.977 83.0829 197.977 83.0829L191.533 81.4718L185.411 82.1162L180.578 85.3383L180.9 92.1045Z" fill="#16181B"/>
<path d="M199.473 105.35C199.473 105.35 199.731 105.212 184.325 105.773L177.877 107.549L177.02 107.785C177.02 107.785 177.832 124.016 179.996 126.992C182.16 129.968 181.619 131.591 181.078 131.861C180.537 132.132 179.184 131.591 179.996 132.943C180.807 134.296 181.889 133.484 180.807 134.296C179.725 135.108 179.184 138.083 179.184 138.083L202.99 141.329C202.99 141.329 203.801 130.779 205.966 125.369C208.13 119.958 208.671 117.794 208.671 117.794L207.048 106.973L199.473 105.35Z" fill="#CBCBCB"/>
<path d="M154.214 59.2073H152.845V21.7052C152.845 15.9487 150.558 10.4279 146.488 6.35735C142.417 2.28684 136.896 3.97969e-05 131.14 3.05177e-05L51.6867 3.05177e-05C45.9301 1.47428e-05 40.4093 2.28679 36.3388 6.35728C32.2683 10.4278 29.9815 15.9486 29.9814 21.7051V227.444C29.9814 233.201 32.2682 238.722 36.3387 242.792C40.4092 246.863 45.93 249.15 51.6866 249.15H131.14C133.99 249.15 136.813 248.588 139.446 247.497C142.079 246.407 144.472 244.808 146.488 242.792C148.503 240.777 150.102 238.384 151.193 235.751C152.284 233.117 152.845 230.295 152.845 227.445V85.9019H154.214L154.214 59.2073Z" fill="#3F3D56"/>
<path d="M148.225 21.8577V227.294C148.227 229.421 147.81 231.528 146.998 233.493C146.186 235.459 144.995 237.245 143.492 238.75C141.99 240.256 140.205 241.45 138.241 242.266C136.277 243.081 134.171 243.502 132.045 243.504H52.1809C47.8849 243.507 43.7636 241.803 40.7237 238.768C37.6837 235.732 35.9742 231.613 35.9712 227.317V21.8577C35.9697 19.7305 36.3872 17.6239 37.1998 15.658C38.0125 13.6922 39.2044 11.9056 40.7075 10.4004C42.2106 8.8952 43.9954 7.70078 45.9601 6.88535C47.9248 6.06992 50.0309 5.64946 52.1581 5.64796H61.8655C61.3886 6.81725 61.2065 8.08589 61.3354 9.34212C61.4643 10.5983 61.9002 11.8036 62.6047 12.8516C63.3092 13.8997 64.2606 14.7584 65.3752 15.3521C66.4897 15.9458 67.7332 16.2563 68.996 16.2562H114.515C115.778 16.2563 117.021 15.9458 118.136 15.3521C119.25 14.7584 120.202 13.8997 120.906 12.8516C121.611 11.8036 122.046 10.5983 122.175 9.34212C122.304 8.08589 122.122 6.81725 121.645 5.64796H132.016C136.311 5.6441 140.432 7.34668 143.472 10.3812C146.512 13.4156 148.222 17.5334 148.225 21.8286V21.8577L148.225 21.8577Z" fill="white"/>
<path d="M148.225 52.2514V45.2539H137.635V6.64855C135.836 5.98424 133.933 5.6454 132.016 5.64787H130.637V45.2539H93.9001V16.2561H86.9025V45.2539H56.1135V5.64791H52.181C51.1524 5.6463 50.126 5.74355 49.116 5.9383V45.2539H35.9712V52.2514H49.116V68.4368L35.9714 76.0256V84.1077L49.116 76.519V124.676H35.9712V131.673H49.116V201.299H35.9712V208.296H49.116V243.214C50.126 243.408 51.1524 243.506 52.181 243.504H56.1135V208.296H86.9026V243.504H93.9001V208.296H130.637V243.504H132.016C133.933 243.507 135.836 243.168 137.635 242.503V208.296H148.225V201.299H137.635V170.859H148.131V163.862H137.635V131.673H148.225V124.676H137.635V81.9908H148.225V74.9933H137.635V52.2514L148.225 52.2514ZM77.1518 52.2514L77.1516 52.2515L56.1136 64.3992L56.1135 64.3993V52.2514H77.1518ZM56.1135 72.4779L56.1136 72.4778L86.9025 54.7007V124.676H56.1135V72.4779ZM56.1135 201.299V131.673H86.9025V201.299H56.1135ZM130.637 201.299H93.9001V170.859H130.637V201.299ZM130.637 163.862H93.9001V131.673H130.637V163.862ZM130.637 124.676H93.9001V81.9908H130.637V124.676ZM130.637 74.9933H93.9001V52.2514H130.637V74.9933Z" fill="#E5E5E5"/>
<path d="M154.079 75.1229C154.079 97.3445 113.843 146.847 113.843 146.847C113.843 146.847 73.6074 97.3445 73.6074 75.1229C73.6074 64.4518 77.8465 54.2176 85.3922 46.672C92.9379 39.1263 103.172 34.8872 113.843 34.8872C124.514 34.8872 134.748 39.1263 142.294 46.672C149.84 54.2176 154.079 64.4518 154.079 75.1229Z" fill="#FF6B01"/>
<path d="M137.635 73.3736C137.635 78.0791 136.24 82.6789 133.626 86.5914C131.012 90.5039 127.296 93.5534 122.948 95.3541C118.601 97.1548 113.817 97.626 109.202 96.708C104.587 95.79 100.348 93.524 97.0206 90.1967C93.6933 86.8694 91.4274 82.6302 90.5094 78.0151C89.5914 73.4 90.0625 68.6163 91.8633 64.2689C93.664 59.9216 96.7134 56.2059 100.626 53.5916C104.538 50.9774 109.138 49.582 113.844 49.582C116.967 49.5806 120.059 50.1942 122.945 51.388C125.831 52.5818 128.453 54.3322 130.662 56.5395C132.872 58.7467 134.625 61.3674 135.821 64.2521C137.017 67.1367 137.634 70.2288 137.635 73.3517V73.3736Z" fill="white"/>
<path d="M113.76 82.7651C118.656 82.7651 122.624 78.7968 122.624 73.9016C122.624 69.0064 118.656 65.0381 113.76 65.0381C108.865 65.0381 104.897 69.0064 104.897 73.9016C104.897 78.7968 108.865 82.7651 113.76 82.7651Z" fill="#FF6B01"/>
<path d="M126.624 94.1455C122.804 96.5751 118.369 97.8653 113.841 97.8646C109.313 97.864 104.879 96.5727 101.059 94.142C101.854 91.3647 103.531 88.9217 105.838 87.1827C108.144 85.4437 110.954 84.5033 113.843 84.5037C116.732 84.5041 119.542 85.4453 121.848 87.1849C124.154 88.9246 125.831 91.368 126.624 94.1455Z" fill="#FF6B01"/>
<path d="M113.843 175.887C119.833 175.887 124.689 171.031 124.689 165.041C124.689 159.051 119.833 154.195 113.843 154.195C107.853 154.195 102.997 159.051 102.997 165.041C102.997 171.031 107.853 175.887 113.843 175.887Z" fill="#FF6B01"/>
<path d="M281.65 249.361H0.349876C0.257083 249.361 0.168091 249.324 0.102476 249.259C0.0368618 249.193 0 249.104 0 249.011C0 248.918 0.0368618 248.829 0.102476 248.764C0.168091 248.698 0.257083 248.661 0.349876 248.661H281.65C281.743 248.661 281.832 248.698 281.898 248.764C281.963 248.829 282 248.918 282 249.011C282 249.104 281.963 249.193 281.898 249.259C281.832 249.324 281.743 249.361 281.65 249.361Z" fill="#CBCBCB"/>
</g>
<defs>
<clipPath id="clip0">
<rect width="282" height="249.361" fill="white"/>
</clipPath>
</defs>
</svg>
