<svg width="292" height="223" viewBox="0 0 292 223" fill="none" xmlns="http://www.w3.org/2000/svg">
<g clip-path="url(#clip0)">
<path d="M116.844 46.0713H115.778V16.8896C115.778 14.6716 115.342 12.4754 114.493 10.4262C113.644 8.37709 112.4 6.51519 110.832 4.94685C109.263 3.37851 107.401 2.13443 105.352 1.28565C103.303 0.436866 101.107 1.87924e-06 98.8888 0H37.0634C32.584 -8.53925e-06 28.2881 1.77941 25.1207 4.94681C21.9533 8.11421 20.1738 12.4101 20.1738 16.8895V176.983C20.1738 179.201 20.6107 181.397 21.4595 183.446C22.3082 185.495 23.5523 187.357 25.1207 188.925C26.689 190.494 28.5509 191.738 30.6 192.587C32.6492 193.435 34.8454 193.872 37.0634 193.872H98.8887C103.368 193.872 107.664 192.093 110.831 188.925C113.999 185.758 115.778 181.462 115.778 176.983V66.8433H116.844V46.0713Z" fill="#3F3D56"/>
<path d="M99.5703 4.39401H91.5C91.8712 5.3039 92.0128 6.2911 91.9126 7.26864C91.8123 8.24618 91.4732 9.18407 90.925 9.99967C90.3769 10.8153 89.6366 11.4835 88.7694 11.9457C87.9022 12.4078 86.9346 12.6495 85.9519 12.6496H50.533C49.5503 12.6495 48.5827 12.4078 47.7155 11.9457C46.8482 11.4836 46.1079 10.8153 45.5598 9.99967C45.0117 9.18407 44.6726 8.24619 44.5723 7.26865C44.472 6.29111 44.6137 5.3039 44.9848 4.39401H37.4472C35.7908 4.39401 34.1507 4.72026 32.6204 5.35411C31.0901 5.98797 29.6997 6.91703 28.5285 8.08825C27.3573 9.25947 26.4282 10.6499 25.7943 12.1802C25.1605 13.7105 24.8342 15.3506 24.8342 17.0069V176.865C24.8342 178.521 25.1605 180.162 25.7943 181.692C26.4282 183.222 27.3572 184.613 28.5285 185.784C29.6997 186.955 31.0901 187.884 32.6204 188.518C34.1507 189.152 35.7908 189.478 37.4472 189.478H99.5703C101.227 189.478 102.867 189.152 104.397 188.518C105.927 187.884 107.318 186.955 108.489 185.784C109.66 184.613 110.589 183.222 111.223 181.692C111.857 180.162 112.183 178.521 112.183 176.865V17.0069C112.183 15.3506 111.857 13.7105 111.223 12.1802C110.589 10.6499 109.66 9.25947 108.489 8.08825C107.318 6.91703 105.927 5.98797 104.397 5.35411C102.867 4.72026 101.227 4.39401 99.5703 4.39401Z" fill="white"/>
<path d="M136.66 193.9H0.357749C0.262868 193.9 0.171873 193.862 0.104782 193.795C0.037691 193.728 0 193.637 0 193.542C0 193.447 0.037691 193.356 0.104782 193.289C0.171873 193.222 0.262868 193.184 0.357749 193.184H136.66C136.755 193.184 136.846 193.222 136.913 193.289C136.98 193.356 137.018 193.447 137.018 193.542C137.018 193.637 136.98 193.728 136.913 193.795C136.846 193.862 136.755 193.9 136.66 193.9Z" fill="#CBCBCB"/>
<path d="M68.5089 123.666C85.1937 123.666 98.7194 110.141 98.7194 93.4558C98.7194 76.771 85.1937 63.2453 68.5089 63.2453C51.824 63.2453 38.2983 76.771 38.2983 93.4558C38.2983 110.141 51.824 123.666 68.5089 123.666Z" fill="#FF6B01"/>
<path d="M65.5151 104.98C64.8354 104.981 64.1738 104.762 63.6301 104.354L63.5963 104.329L56.4965 98.8973C56.1676 98.6452 55.8917 98.3309 55.6844 97.9721C55.477 97.6134 55.3424 97.2173 55.2882 96.8066C55.2339 96.3958 55.2611 95.9783 55.3681 95.5781C55.4752 95.1778 55.6601 94.8026 55.9122 94.4737C56.1642 94.1449 56.4786 93.869 56.8374 93.6616C57.1961 93.4543 57.5922 93.3197 58.0029 93.2654C58.4137 93.2112 58.8312 93.2383 59.2314 93.3454C59.6317 93.4525 60.0069 93.6373 60.3358 93.8894L64.9345 97.4159L75.8015 83.2387C76.0535 82.91 76.3678 82.6342 76.7264 82.4269C77.085 82.2197 77.4809 82.0851 77.8915 82.0309C78.3021 81.9766 78.7193 82.0038 79.1194 82.1108C79.5195 82.2179 79.8946 82.4026 80.2233 82.6546L80.2242 82.6553L80.1568 82.749L80.2261 82.6553C80.8892 83.165 81.323 83.9169 81.4324 84.746C81.5418 85.5752 81.3177 86.4138 80.8094 87.078L68.0274 103.746C67.7317 104.13 67.3515 104.441 66.9163 104.654C66.4811 104.868 66.0025 104.978 65.5178 104.977L65.5151 104.98Z" fill="white"/>
<path d="M248.365 196.869C248.733 196.275 249.165 195.723 249.655 195.225C249.857 195.016 250.07 194.818 250.29 194.626C251.626 193.437 253.254 192.626 255.007 192.275C256.761 191.924 258.576 192.046 260.267 192.629C261.957 193.212 263.462 194.235 264.626 195.593C265.79 196.95 266.571 198.593 266.89 200.353C268.365 194.896 264.525 189.522 260.663 185.393C256.799 181.266 252.384 176.739 252.406 171.084C252.417 167.937 253.956 165.13 256.28 163.049C256.352 162.986 256.423 162.923 256.496 162.862C259.305 160.454 262.919 159.195 266.616 159.335C273.485 159.703 279.482 164.319 283.647 169.795C290.351 178.605 293.288 190.973 288.595 201.002C284.467 209.823 275.663 215.061 266.678 219.272C265.423 219.86 264.171 220.43 262.921 220.983C262.913 220.985 262.904 220.991 262.896 220.993C262.835 221.02 262.775 221.046 262.719 221.073C262.461 221.187 262.203 221.301 261.947 221.413L262.066 221.491L262.435 221.73C262.307 221.652 262.18 221.577 262.052 221.5C262.014 221.476 261.974 221.454 261.936 221.43C257.523 218.782 253.048 215.981 249.999 211.847C246.838 207.555 245.566 201.407 248.365 196.869Z" fill="#F1F1F1"/>
<path d="M277.809 186.901C278.786 189.124 279.434 191.478 279.732 193.888C279.967 196.037 279.878 198.209 279.471 200.332C278.594 204.694 276.683 208.783 273.898 212.253C271.796 214.887 269.371 217.246 266.678 219.272C265.423 219.86 264.171 220.43 262.921 220.983C262.913 220.985 262.904 220.991 262.896 220.993C262.836 221.02 262.775 221.046 262.719 221.073C262.461 221.187 262.203 221.301 261.947 221.413L262.066 221.491L262.435 221.73C262.307 221.652 262.18 221.577 262.052 221.5C262.014 221.476 261.974 221.454 261.936 221.43C262.907 218.033 263.05 214.453 262.352 210.989C261.655 207.525 260.137 204.279 257.927 201.523C255.704 198.801 252.87 196.643 249.655 195.225C249.857 195.016 250.07 194.818 250.29 194.626C251.528 195.195 252.714 195.872 253.833 196.65C257.835 199.416 260.84 203.397 262.404 208.004C263.8 212.184 263.974 216.675 262.907 220.951C263.128 220.806 263.35 220.657 263.567 220.509C267.678 217.737 271.467 214.407 274.321 210.324C276.782 206.873 278.358 202.87 278.908 198.667C279.455 194.076 278.306 189.561 276.256 185.464C273.993 181.081 271.14 177.029 267.779 173.419C264.402 169.709 260.585 166.426 256.411 163.644C256.317 163.581 256.251 163.484 256.227 163.373C256.202 163.262 256.221 163.146 256.28 163.049C256.325 162.961 256.403 162.894 256.497 162.862C256.544 162.85 256.594 162.849 256.642 162.859C256.691 162.868 256.736 162.889 256.775 162.919C257.291 163.263 257.802 163.609 258.306 163.967C262.509 166.943 266.327 170.43 269.67 174.347C272.901 178.123 275.841 182.318 277.809 186.901Z" fill="white"/>
<path d="M187.833 14.0276C191.377 14.0276 194.249 11.1551 194.249 7.61169C194.249 4.06829 191.377 1.1958 187.833 1.1958C184.29 1.1958 181.417 4.06829 181.417 7.61169C181.417 11.1551 184.29 14.0276 187.833 14.0276Z" fill="#F1F1F1"/>
<path d="M267.611 99.8872C269.771 99.8872 271.523 98.1359 271.523 95.9756C271.523 93.8153 269.771 92.064 267.611 92.064C265.451 92.064 263.699 93.8153 263.699 95.9756C263.699 98.1359 265.451 99.8872 267.611 99.8872Z" fill="#F1F1F1"/>
<path d="M153.132 110.62C155.292 110.62 157.043 108.868 157.043 106.708C157.043 104.548 155.292 102.796 153.132 102.796C150.971 102.796 149.22 104.548 149.22 106.708C149.22 108.868 150.971 110.62 153.132 110.62Z" fill="#F1F1F1"/>
<path d="M155.34 222.162H291.642C291.737 222.162 291.828 222.124 291.895 222.057C291.962 221.99 292 221.899 292 221.804C292 221.709 291.962 221.618 291.895 221.551C291.828 221.484 291.737 221.446 291.642 221.446H155.34C155.245 221.446 155.154 221.484 155.087 221.551C155.02 221.618 154.982 221.709 154.982 221.804C154.982 221.899 155.02 221.99 155.087 222.057C155.154 222.124 155.245 222.162 155.34 222.162Z" fill="#CBCBCB"/>
<path d="M276.601 34.571C276.779 33.3003 276.486 32.0081 275.776 30.9393C275.066 29.8704 273.988 29.0992 272.748 28.7717C271.507 28.4442 270.189 28.5833 269.044 29.1625C267.899 29.7417 267.006 30.7208 266.535 31.9143L255.474 44.5944L258.719 53.6586L269.843 38.8424C270.569 39.0749 271.337 39.1454 272.093 39.049C272.849 38.9526 273.575 38.6916 274.219 38.2843C274.863 37.8771 275.41 37.3335 275.822 36.692C276.233 36.0504 276.499 35.3264 276.601 34.571Z" fill="#FFB7B7"/>
<path d="M230.753 83.9095L267.468 44.7256L262.516 36.8523L216.465 75.7982L230.753 83.9095Z" fill="#3F3D56"/>
<path d="M222.558 60.1018C229.671 60.1018 235.437 54.3357 235.437 47.2228C235.437 40.11 229.671 34.3439 222.558 34.3439C215.446 34.3439 209.679 40.11 209.679 47.2228C209.679 54.3357 215.446 60.1018 222.558 60.1018Z" fill="#16181B"/>
<path d="M223.594 39.9473C226.365 37.137 229.719 34.9683 233.418 33.594C235.793 32.7141 238.378 32.1705 240.861 32.6702C243.344 33.1699 245.692 34.8876 246.385 37.3237C246.952 39.3158 246.367 41.4606 245.488 43.3359C244.609 45.2111 243.435 46.95 242.724 48.8952C241.999 50.88 241.781 53.0146 242.09 55.105C242.398 57.1955 243.225 59.1758 244.493 60.866C245.761 62.5563 247.432 63.903 249.352 64.7839C251.273 65.6649 253.384 66.0521 255.492 65.9106C253.052 66.2377 250.803 67.3841 248.419 67.9944C246.034 68.6046 243.22 68.5633 241.448 66.8549C239.573 65.0474 239.535 62.1086 239.626 59.5058C239.761 55.6368 239.895 51.7678 240.03 47.8987C240.099 45.9256 240.158 43.8892 239.446 42.0475C238.734 40.2059 237.043 38.5932 235.069 38.61C233.573 38.6227 232.248 39.5292 231.049 40.4231C229.848 41.317 228.578 42.2708 227.088 42.4037C225.598 42.5367 223.896 41.4337 224.007 39.9415L223.594 39.9473Z" fill="#16181B"/>
<path d="M173.643 133.699C172.406 134.043 171.087 133.921 169.935 133.356C168.782 132.792 167.877 131.824 167.39 130.637C166.903 129.45 166.869 128.125 167.293 126.914C167.718 125.703 168.572 124.69 169.694 124.067L180.82 111.444L190.23 113.477L176.995 126.441C177.32 127.131 177.49 127.883 177.493 128.645C177.497 129.407 177.333 130.161 177.013 130.853C176.694 131.545 176.226 132.158 175.644 132.65C175.062 133.142 174.379 133.5 173.643 133.699H173.643Z" fill="#FFB7B7"/>
<path d="M210.248 88.5087L182.517 123.318L174.064 119.437L206.659 68.6919L210.248 88.5087Z" fill="#3F3D56"/>
<path d="M188.121 193.618L181.512 193.514L182.307 216.04H188.12L188.121 193.618Z" fill="#FFB7B7"/>
<path d="M189.603 214.142L178.155 214.142H178.154C176.22 214.142 174.364 214.91 172.996 216.279C171.627 217.647 170.859 219.502 170.859 221.437V221.674L189.603 221.675L189.603 214.142Z" fill="#16181B"/>
<path d="M231.88 187.643L224.661 192.278L239.102 209.652L243.994 206.512L231.88 187.643Z" fill="#FFB7B7"/>
<path d="M244.216 204.113L234.583 210.298L234.582 210.298C232.954 211.344 231.808 212.993 231.396 214.884C230.984 216.774 231.339 218.751 232.385 220.379L232.513 220.579L248.286 210.452L244.216 204.113Z" fill="#16181B"/>
<path d="M234.452 118.858C234.452 118.858 218.411 65.5799 213.255 64.8599C208.1 64.14 199.794 78.5306 199.794 78.5306C189.025 92.2711 177.92 136.78 177.92 136.78C177.92 136.78 196.432 137.938 209.965 145.138C223.497 152.338 239.467 144.773 239.467 144.773L234.452 118.858Z" fill="#3F3D56"/>
<path opacity="0.1" d="M234.452 118.858C234.452 118.858 218.411 65.5797 213.255 64.8598C208.1 64.1398 201.904 78.6765 201.904 78.6765C196.538 100.857 177.92 136.779 177.92 136.779C177.92 136.779 196.432 137.938 209.965 145.138C223.497 152.337 239.467 144.773 239.467 144.773L234.452 118.858Z" fill="black"/>
<path d="M221.292 102.918V129.69L224.442 168.472L240.183 197.807L232.671 203.173L211.206 175.269L202.716 147.561L189.383 208.897L179.366 208.182L186.323 123.141L199.524 99.2039L221.292 102.918Z" fill="#16181B"/>
<path d="M205.118 77.0231C200.11 82.0316 204.76 87.3978 204.76 87.3978L199.036 100.277L221.575 106.359L229.451 71.1638L224.085 65.4398C213.352 65.0821 213.346 64.8596 213.346 64.8596C211.466 66.6998 205.118 77.0231 205.118 77.0231Z" fill="#FF6B01"/>
<path d="M230.358 67.5178C229.334 66.7622 228.171 66.2172 226.935 65.9144C225.7 65.6116 224.416 65.5569 223.159 65.7537C221.902 65.9504 220.697 66.3947 219.612 67.0606C218.528 67.7265 217.587 68.6009 216.843 69.6332C211.177 77.5223 205.938 90.2614 213.157 106.149C224.748 131.66 234.834 144.72 238.935 144.718C239.114 144.72 239.292 144.692 239.462 144.635C241.986 143.779 245.635 139.508 246.295 135.745C246.532 134.397 246.476 132.521 244.865 131.232C240.237 127.531 231.929 116.006 229.338 100.837C227.905 92.4548 230.683 84.8197 233.265 79.8907C234.356 77.8512 234.675 75.4869 234.164 73.2313C233.653 70.9757 232.346 68.9798 230.483 67.6095L230.358 67.5178Z" fill="#3F3D56"/>
<path d="M223.221 58.8367C227.815 56.3252 229.503 50.565 226.992 45.9707C224.481 41.3765 218.72 39.688 214.126 42.1995C209.532 44.7109 207.843 50.4712 210.355 55.0654C212.866 59.6597 218.626 61.3481 223.221 58.8367Z" fill="#FFB7B7"/>
<path d="M205.341 49.801H219.03L219.17 47.8356L219.872 49.801H221.98L222.258 45.9057L223.65 49.801H227.728V49.608C227.725 46.8961 226.646 44.2962 224.729 42.3785C222.811 40.4609 220.211 39.3823 217.499 39.3792H215.569C212.857 39.3823 210.258 40.4609 208.34 42.3785C206.422 44.2961 205.344 46.8961 205.341 49.608V49.801Z" fill="#16181B"/>
<path d="M225.66 56.8657L231.502 54.9701V40.7834H220.468L220.741 41.0561C224.542 44.8522 228.769 58.32 225.66 56.8657Z" fill="#16181B"/>
</g>
<defs>
<clipPath id="clip0">
<rect width="292" height="222.162" fill="white"/>
</clipPath>
</defs>
</svg>
