<svg width="20" height="20" viewBox="0 0 20 20" fill="none" xmlns="http://www.w3.org/2000/svg">
<path d="M2.62602 6.878C3.02564 5.92801 3.60645 5.06495 4.33602 4.337C5.06398 3.60699 5.92747 3.02612 6.87802 2.627C8.83751 1.81293 11.0378 1.79822 13.008 2.586C13.0278 3.23347 13.2991 3.84776 13.7644 4.29846C14.2296 4.74917 14.8522 5.00082 15.5 5C16.886 5 18 3.886 18 2.5C18 1.114 16.886 0 15.5 0C14.811 0 14.188 0.276 13.737 0.725C11.306 -0.248 8.51402 -0.233 6.10202 0.784C4.91202 1.284 3.84202 2.004 2.92202 2.923C1.9931 3.8522 1.25679 4.95569 0.755361 6.17014C0.25393 7.38459 -0.002759 8.68611 2.23631e-05 10H2.00002C2.00002 8.914 2.21102 7.864 2.62602 6.878ZM17.373 13.122C16.972 14.074 16.396 14.93 15.663 15.663C14.93 16.396 14.074 16.972 13.121 17.373C11.1615 18.1871 8.96123 18.2018 6.99102 17.414C6.97176 16.7665 6.70074 16.1521 6.23557 15.7013C5.77041 15.2505 5.14778 14.9989 4.50002 15C3.11402 15 2.00002 16.114 2.00002 17.5C2.00002 18.886 3.11402 20 4.50002 20C5.18902 20 5.81202 19.724 6.26302 19.275C7.45058 19.7544 8.71936 20.0005 10 20C11.9666 20.0038 13.8904 19.4267 15.5302 18.3411C17.1699 17.2555 18.4525 15.7098 19.217 13.898C19.7365 12.6642 20.0028 11.3387 20 10H18C18.0025 11.0722 17.7893 12.1339 17.373 13.122Z" fill="#16181B"/>
<path d="M9.99991 5.46201C7.49791 5.46201 5.46191 7.49801 5.46191 10C5.46191 12.502 7.49791 14.538 9.99991 14.538C12.5019 14.538 14.5379 12.502 14.5379 10C14.5379 7.49801 12.5019 5.46201 9.99991 5.46201Z" fill="#16181B"/>
</svg>
