<svg width="282" height="246" viewBox="0 0 282 246" fill="none" xmlns="http://www.w3.org/2000/svg">
<g clip-path="url(#clip0)">
<path d="M262.796 245.676V219.031C262.796 219.031 273.18 237.921 262.796 245.676Z" fill="#F1F1F1"/>
<path d="M263.437 245.672L243.808 227.652C243.808 227.652 264.747 232.778 263.437 245.672Z" fill="#F1F1F1"/>
<path d="M99.5314 47.4351H98.4346V17.3896C98.4346 12.7776 96.6025 8.35448 93.3413 5.09331C90.0802 1.83214 85.6571 3.34483e-05 81.0451 3.05176e-05H17.3896C15.1059 2.51968e-05 12.8447 0.449813 10.7349 1.32371C8.62508 2.19761 6.70807 3.47852 5.0933 5.09328C3.47853 6.70804 2.19762 8.62505 1.32371 10.7348C0.449802 12.8446 3.86968e-06 15.1059 0 17.3895V182.222C-3.90758e-06 186.834 1.8321 191.257 5.09327 194.518C8.35443 197.779 12.7775 199.611 17.3895 199.611H81.045C85.657 199.611 90.0801 197.779 93.3413 194.518C96.6025 191.257 98.4346 186.834 98.4346 182.222V68.822H99.5314V47.4351Z" fill="#3F3D56"/>
<path d="M81.7464 4.52407H73.4373C73.8194 5.46089 73.9652 6.47731 73.862 7.48379C73.7588 8.49026 73.4096 9.45591 72.8452 10.2956C72.2809 11.1354 71.5187 11.8235 70.6258 12.2992C69.7329 12.775 68.7367 13.0239 67.7249 13.024H31.2575C30.2457 13.0239 29.2495 12.775 28.3566 12.2992C27.4637 11.8235 26.7015 11.1354 26.1371 10.2956C25.5728 9.4559 25.2236 8.49026 25.1204 7.48378C25.0171 6.4773 25.163 5.46088 25.5451 4.52406H17.7843C16.0789 4.52405 14.3903 4.85995 12.8147 5.51257C11.2391 6.16519 9.80751 7.12175 8.60162 8.32764C7.39572 9.53353 6.43916 10.9651 5.78653 12.5407C5.13391 14.1163 4.79801 15.805 4.798 17.5103V182.101C4.798 183.806 5.1339 185.495 5.78652 187.07C6.43914 188.646 7.39571 190.077 8.6016 191.283C9.80748 192.489 11.2391 193.446 12.8147 194.098C14.3902 194.751 16.0789 195.087 17.7843 195.087H81.7464C85.1906 195.087 88.4937 193.719 90.9291 191.283C93.3645 188.848 94.7327 185.545 94.7327 182.101V182.101V17.5104C94.7327 15.805 94.3968 14.1163 93.7442 12.5407C93.0916 10.9652 92.135 9.53355 90.9291 8.32766C89.7232 7.12177 88.2916 6.1652 86.7161 5.51258C85.1405 4.85996 83.4518 4.52406 81.7464 4.52407V4.52407Z" fill="white"/>
<path d="M49.7658 127.327C66.9445 127.327 80.8706 113.401 80.8706 96.2223C80.8706 79.0436 66.9445 65.1175 49.7658 65.1175C32.5871 65.1175 18.661 79.0436 18.661 96.2223C18.661 113.401 32.5871 127.327 49.7658 127.327Z" fill="#FF6B01"/>
<path d="M58.9827 98.348L51.2476 106.315C51.0793 106.485 50.8781 106.618 50.6565 106.708C50.4348 106.797 50.1973 106.84 49.9584 106.835H49.9327C49.6933 106.84 49.4553 106.796 49.2331 106.707C49.0108 106.618 48.809 106.485 48.6397 106.315L40.9084 98.348C40.8827 98.3185 40.8532 98.2928 40.8273 98.267C40.5187 97.936 40.354 97.4961 40.3692 97.0439C40.3844 96.5917 40.5783 96.1639 40.9084 95.8544C41.2615 95.5225 41.7278 95.3378 42.2123 95.3378C42.6969 95.3378 43.1632 95.5225 43.5163 95.8544L48.0984 100.643V88.296C48.1197 87.8205 48.3236 87.3715 48.6677 87.0425C49.0118 86.7135 49.4695 86.5299 49.9456 86.5299C50.4216 86.5299 50.8793 86.7135 51.2234 87.0425C51.5675 87.3715 51.7714 87.8205 51.7927 88.296V100.643L56.3712 95.8544C56.725 95.5225 57.1919 95.3378 57.677 95.3378C58.1621 95.3378 58.6289 95.5225 58.9827 95.8544C59.0086 95.8801 59.0343 95.9059 59.0638 95.9354C59.3716 96.2668 59.5357 96.7064 59.5205 97.1584C59.5053 97.6104 59.312 98.038 58.9827 98.348V98.348Z" fill="white"/>
<path d="M217.415 240.629L212.899 240.628L210.751 223.21L217.416 223.211L217.415 240.629Z" fill="#9F616A"/>
<path d="M218.567 245.006L204.006 245.005V244.821C204.006 243.318 204.603 241.877 205.666 240.814C206.729 239.751 208.17 239.154 209.673 239.154H209.674L218.567 239.154L218.567 245.006Z" fill="#16181B"/>
<path d="M183.109 240.48L178.746 239.313L181.17 221.931L187.608 223.653L183.109 240.48Z" fill="#9F616A"/>
<path d="M183.091 245.006L169.024 241.244L169.072 241.067C169.46 239.615 170.409 238.376 171.711 237.624C173.012 236.872 174.559 236.667 176.011 237.055L176.011 237.055L184.603 239.353L183.091 245.006Z" fill="#16181B"/>
<path d="M220.013 143.014L223.795 147.409L218.903 236.71H208.454L203.186 167.996L186.852 238.553L175.989 235.889L185.866 146.272L220.013 143.014Z" fill="#16181B"/>
<path d="M188.391 85.3603L198.795 80.1419L214.795 80.4232L228.563 87.4685L220.73 126.591L224.114 146.99H224.114C211.035 150.325 197.342 150.438 184.21 147.318L184.105 147.293C184.105 147.293 191.882 119.698 188.571 111.277L188.391 85.3603Z" fill="#CBCBCB"/>
<path d="M218.49 64.5094C218.479 61.3869 217.229 58.3966 215.015 56.1948C212.801 53.993 209.803 52.7596 206.681 52.7654C203.558 52.7711 200.566 54.0156 198.36 56.2256C196.154 58.4356 194.915 61.4305 194.915 64.5531C194.915 67.6756 196.154 70.6705 198.36 72.8805C200.566 75.0905 203.558 76.335 206.681 76.3408C209.803 76.3465 212.801 75.1132 215.015 72.9113C217.229 70.7095 218.479 67.7192 218.49 64.5967C218.49 64.5676 218.49 64.5385 218.49 64.5094Z" fill="#9F616A"/>
<path d="M201.424 57.7739C202.034 57.1992 202.839 56.8748 203.677 56.865C204.936 56.8241 206.823 57.2713 207.626 58.2951C208.272 59.118 208.303 60.2501 208.305 61.2958L208.312 64.1821C208.314 65.036 208.324 65.9263 208.712 66.687C209.1 67.4477 209.991 68.0254 210.804 67.7661C211.769 67.4585 212.194 66.1758 213.18 65.9452C213.921 65.7719 214.682 66.3132 215.006 67.0016C215.279 67.7151 215.37 68.4858 215.269 69.2433C215.176 70.7546 213.008 71.3541 212.701 72.8368C212.524 73.6945 211.902 75.4054 212.701 75.0469C216.385 74.6785 218.002 72.5271 219.687 70.5019L223.49 65.9341C223.924 65.4806 224.257 64.9406 224.469 64.3494C224.563 63.9352 224.597 63.5096 224.569 63.0857C224.549 61.9504 224.518 60.8154 224.477 59.6807C224.441 58.6892 224.192 57.4384 223.221 57.2346C222.716 57.1287 222.047 57.3134 221.78 56.8719C221.68 56.6505 221.664 56.4004 221.735 56.168C221.949 55.0348 222.311 53.8497 221.938 52.7584C221.375 51.1126 219.439 50.4373 217.727 50.1268C216.016 49.8163 214.095 49.5492 213.021 48.1813C212.733 47.727 212.421 47.2887 212.087 46.8681C211.594 46.4202 210.988 46.1148 210.335 45.9848C208.211 45.4472 205.967 45.6464 203.97 46.5497C203.143 46.9275 202.311 47.4362 201.403 47.3786C200.46 47.3188 199.654 46.655 198.723 46.4935C197.219 46.2326 195.781 47.3596 195.039 48.6942C194.121 50.3478 194.037 52.6125 195.334 53.989C195.981 54.6757 196.947 55.1474 197.216 56.052C197.326 56.4203 197.3 56.8169 197.397 57.1886C197.51 57.5586 197.725 57.8893 198.017 58.1424C198.31 58.3955 198.668 58.5608 199.05 58.6191C199.97 58.7689 200.748 58.3475 201.424 57.7739Z" fill="#16181B"/>
<path d="M186.955 113.885C187.179 114.46 187.527 114.979 187.973 115.405C188.419 115.832 188.953 116.155 189.538 116.353C190.123 116.55 190.744 116.617 191.357 116.549C191.97 116.481 192.561 116.279 193.088 115.957L214.214 127.125L214.898 121.978L194.37 109.874C193.772 109.024 192.882 108.424 191.871 108.187C190.859 107.949 189.795 108.091 188.881 108.586C187.967 109.08 187.266 109.893 186.912 110.869C186.557 111.846 186.572 112.919 186.955 113.885V113.885Z" fill="#9F616A"/>
<path d="M215.107 114.775C214.763 115.287 214.31 115.717 213.782 116.036C213.253 116.354 212.661 116.553 212.047 116.618C211.433 116.683 210.813 116.612 210.229 116.411C209.645 116.21 209.113 115.884 208.669 115.455L185.612 121.73L185.813 115.196L208.749 109.239C209.519 108.541 210.518 108.15 211.557 108.139C212.597 108.129 213.603 108.5 214.387 109.183C215.171 109.865 215.677 110.811 215.81 111.842C215.942 112.872 215.692 113.916 215.107 114.775V114.775Z" fill="#9F616A"/>
<path d="M224.068 87.7501L228.563 87.4684C228.563 87.4684 233.827 94.4135 230.907 101.95C230.907 101.95 231.413 129.022 219.755 127.91C208.097 126.798 204.414 126.798 204.414 126.798L207.913 117.037L215.741 114.62C215.741 114.62 213.329 103.977 217.896 99.5493L224.068 87.7501Z" fill="#CBCBCB"/>
<path d="M191.605 87.5122L190.97 84.2552C190.97 84.2552 181.599 84.0351 179.747 98.2341C179.747 98.2341 171.32 119.484 179.58 122.221C187.839 124.957 196.924 122.221 196.924 122.221L196.24 112.849L187.152 110.995C187.152 110.995 191.847 104.921 189.29 99.6527L191.605 87.5122Z" fill="#CBCBCB"/>
<path d="M281.632 245.956H141.295C141.197 245.956 141.103 245.917 141.034 245.848C140.965 245.779 140.926 245.685 140.926 245.588C140.926 245.49 140.965 245.396 141.034 245.327C141.103 245.258 141.197 245.219 141.295 245.219H281.632C281.729 245.219 281.823 245.258 281.892 245.327C281.961 245.396 282 245.49 282 245.588C282 245.685 281.961 245.779 281.892 245.848C281.823 245.917 281.729 245.956 281.632 245.956Z" fill="#CBCBCB"/>
</g>
<defs>
<clipPath id="clip0">
<rect width="282" height="245.956" fill="white"/>
</clipPath>
</defs>
</svg>
