<svg width="19" height="19" viewBox="0 0 19 19" fill="none" xmlns="http://www.w3.org/2000/svg">
<path d="M17.4854 5.75726C18.0481 5.19463 18.3641 4.43155 18.3641 3.63588C18.3641 2.84021 18.0481 2.07713 17.4854 1.51451C16.9228 0.951882 16.1597 0.635803 15.3641 0.635803C14.5684 0.635803 13.8053 0.951882 13.2427 1.51451L12.1904 2.56751L16.4324 6.80951L17.4854 5.75726Z" fill="#797979"/>
<path d="M15.3719 7.87005L6.40565 16.8378C5.92501 17.3184 5.3228 17.6593 4.6634 17.8241L1.2269 18.6836C1.10121 18.715 0.969514 18.7134 0.844637 18.6789C0.719761 18.6443 0.605968 18.578 0.514348 18.4864C0.422728 18.3947 0.356406 18.2809 0.321847 18.1561C0.287288 18.0312 0.28567 17.8995 0.317151 17.7738L1.17665 14.3373C1.34144 13.6779 1.68234 13.0757 2.1629 12.5951L11.1292 3.62805L15.3719 7.8708V7.87005Z" fill="#797979"/>
</svg>
