<svg width="20" height="20" viewBox="0 0 20 20" fill="none" xmlns="http://www.w3.org/2000/svg">
<path d="M13.2475 14.11L14.9275 12.43C15.1538 12.2065 15.44 12.0535 15.7516 11.9896C16.0631 11.9257 16.3865 11.9536 16.6825 12.07L18.73 12.8875C19.0291 13.0089 19.2856 13.2161 19.4671 13.483C19.6486 13.75 19.747 14.0647 19.75 14.3875V18.1375C19.7482 18.3571 19.7021 18.574 19.6143 18.7753C19.5265 18.9766 19.3989 19.158 19.2391 19.3086C19.0793 19.4593 18.8907 19.5761 18.6847 19.6519C18.4786 19.7277 18.2593 19.7611 18.04 19.75C3.69248 18.8575 0.797478 6.70747 0.249978 2.05747C0.224563 1.82912 0.247784 1.59798 0.318114 1.37925C0.388445 1.16052 0.50429 0.959164 0.658029 0.788422C0.811768 0.617679 0.999916 0.481423 1.2101 0.388617C1.42028 0.295812 1.64772 0.24856 1.87748 0.24997H5.49998C5.82324 0.250926 6.13881 0.34857 6.40612 0.530342C6.67344 0.712113 6.88025 0.969699 6.99998 1.26997L7.81748 3.31747C7.93767 3.61227 7.96833 3.93595 7.90564 4.24808C7.84295 4.5602 7.68968 4.84694 7.46498 5.07247L5.78498 6.75247C5.78498 6.75247 6.75248 13.3 13.2475 14.11Z" fill="#16181B"/>
</svg>
