<svg width="17" height="24" viewBox="0 0 17 24" fill="none" xmlns="http://www.w3.org/2000/svg">
<path d="M3.38471 0C2.65026 0 1.9459 0.291757 1.42657 0.811089C0.907236 1.33042 0.615479 2.03479 0.615479 2.76923V21.2308C0.615479 21.9652 0.907236 22.6696 1.42657 23.1889C1.9459 23.7082 2.65026 24 3.38471 24H13.5386C14.273 24 14.9774 23.7082 15.4967 23.1889C16.016 22.6696 16.3078 21.9652 16.3078 21.2308V2.76923C16.3078 2.03479 16.016 1.33042 15.4967 0.811089C14.9774 0.291757 14.273 0 13.5386 0L3.38471 0ZM7.53856 0.923077H9.38471C9.50712 0.923077 9.62451 0.971703 9.71107 1.05826C9.79762 1.14481 9.84625 1.26221 9.84625 1.38462C9.84625 1.50702 9.79762 1.62442 9.71107 1.71097C9.62451 1.79753 9.50712 1.84615 9.38471 1.84615H7.53856C7.41615 1.84615 7.29875 1.79753 7.2122 1.71097C7.12564 1.62442 7.07702 1.50702 7.07702 1.38462C7.07702 1.26221 7.12564 1.14481 7.2122 1.05826C7.29875 0.971703 7.41615 0.923077 7.53856 0.923077ZM2.92317 2.76923H14.0001C14.1225 2.76923 14.2399 2.81786 14.3265 2.90441C14.413 2.99097 14.4616 3.10836 14.4616 3.23077V18.9231C14.4616 19.0455 14.413 19.1629 14.3265 19.2494C14.2399 19.336 14.1225 19.3846 14.0001 19.3846H2.92317C2.80076 19.3846 2.68337 19.336 2.59681 19.2494C2.51026 19.1629 2.46163 19.0455 2.46163 18.9231V3.23077C2.46163 3.10836 2.51026 2.99097 2.59681 2.90441C2.68337 2.81786 2.80076 2.76923 2.92317 2.76923ZM9.78902 7.38462C9.40779 7.40954 8.98133 7.64492 8.72102 7.96154C8.48471 8.24769 8.26963 8.67138 8.34625 9.08677C8.76256 9.09785 9.19363 8.85969 9.44286 8.53846C9.67548 8.23938 9.85271 7.81662 9.78809 7.38462H9.78902ZM7.22102 9.02862C6.6764 9.02862 6.0884 9.38492 5.72102 9.95169C5.20225 10.7474 5.28717 12.2215 6.12532 13.5C6.42625 13.956 6.84163 14.4757 7.36594 14.4812C7.83025 14.4858 7.94471 14.196 8.57702 14.1923C9.20932 14.1886 9.32194 14.4858 9.78902 14.4812C10.3115 14.4757 10.7582 13.9274 11.0573 13.4714C11.2715 13.1437 11.3527 12.9757 11.5189 12.6055C10.305 12.1468 10.0881 10.4068 11.2881 9.74954C10.9226 9.29354 10.4176 9.02954 9.93302 9.02954C9.29148 9.02954 9.02286 9.34615 8.57702 9.34615C8.11733 9.34615 7.77671 9.02862 7.22102 9.02862ZM8.46163 20.5108C9.11333 20.5108 9.64409 21.0415 9.64409 21.6932C9.64409 22.3449 9.11333 22.8757 8.46163 22.8757C8.14817 22.8752 7.84769 22.7505 7.62605 22.5288C7.4044 22.3072 7.27966 22.0067 7.27917 21.6932C7.27917 21.0415 7.80994 20.5108 8.46163 20.5108Z" fill="#16181B"/>
</svg>
