<svg width="30" height="30" viewBox="0 0 30 30" fill="none" xmlns="http://www.w3.org/2000/svg">
<path d="M15 30C23.2843 30 30 23.2843 30 15C30 6.71573 23.2843 0 15 0C6.71573 0 0 6.71573 0 15C0 23.2843 6.71573 30 15 30Z" fill="white"/>
<path d="M15 12.5C13.645 12.5 12.5 13.645 12.5 15C12.5 16.355 13.645 17.5 15 17.5C16.355 17.5 17.5 16.355 17.5 15C17.5 13.645 16.355 12.5 15 12.5Z" fill="#797979"/>
<path d="M21.6667 9.16666H19.5117L17.2559 6.91082C17.1787 6.83329 17.0868 6.7718 16.9857 6.72989C16.8846 6.68799 16.7762 6.6665 16.6667 6.66666H13.3334C13.224 6.6665 13.1156 6.68799 13.0144 6.72989C12.9133 6.7718 12.8215 6.83329 12.7442 6.91082L10.4884 9.16666H8.33341C7.41425 9.16666 6.66675 9.91416 6.66675 10.8333V20C6.66675 20.9192 7.41425 21.6667 8.33341 21.6667H21.6667C22.5859 21.6667 23.3334 20.9192 23.3334 20V10.8333C23.3334 9.91416 22.5859 9.16666 21.6667 9.16666ZM15.0001 19.1667C12.7417 19.1667 10.8334 17.2583 10.8334 15C10.8334 12.7417 12.7417 10.8333 15.0001 10.8333C17.2584 10.8333 19.1667 12.7417 19.1667 15C19.1667 17.2583 17.2584 19.1667 15.0001 19.1667Z" fill="#797979"/>
</svg>
