<svg width="24" height="20" viewBox="0 0 24 20" fill="none" xmlns="http://www.w3.org/2000/svg">
<path d="M0.75 12.8139C0.948912 12.8139 1.13968 12.8874 1.28033 13.0182C1.42098 13.1491 1.5 13.3265 1.5 13.5116V16.9999C1.5 17.37 1.65804 17.7249 1.93934 17.9866C2.22064 18.2483 2.60218 18.3953 3 18.3953H21C21.3978 18.3953 21.7794 18.2483 22.0607 17.9866C22.342 17.7249 22.5 17.37 22.5 16.9999V13.5116C22.5 13.3265 22.579 13.1491 22.7197 13.0182C22.8603 12.8874 23.0511 12.8139 23.25 12.8139C23.4489 12.8139 23.6397 12.8874 23.7803 13.0182C23.921 13.1491 24 13.3265 24 13.5116V16.9999C24 17.7401 23.6839 18.4499 23.1213 18.9733C22.5587 19.4966 21.7956 19.7906 21 19.7906H3C2.20435 19.7906 1.44129 19.4966 0.87868 18.9733C0.316071 18.4499 0 17.7401 0 16.9999V13.5116C0 13.3265 0.0790176 13.1491 0.21967 13.0182C0.360322 12.8874 0.551088 12.8139 0.75 12.8139Z" fill="#16181B"/>
<path d="M11.4687 15.5404C11.5384 15.6054 11.6212 15.657 11.7123 15.6921C11.8034 15.7273 11.9011 15.7454 11.9997 15.7454C12.0984 15.7454 12.1961 15.7273 12.2872 15.6921C12.3783 15.657 12.4611 15.6054 12.5307 15.5404L17.0307 11.3544C17.1716 11.2234 17.2507 11.0457 17.2507 10.8604C17.2507 10.6752 17.1716 10.4975 17.0307 10.3665C16.8899 10.2355 16.6989 10.1619 16.4997 10.1619C16.3006 10.1619 16.1096 10.2355 15.9687 10.3665L12.7497 13.3623V1.093C12.7497 0.907964 12.6707 0.730508 12.5301 0.599669C12.3894 0.468829 12.1986 0.395325 11.9997 0.395325C11.8008 0.395325 11.61 0.468829 11.4694 0.599669C11.3287 0.730508 11.2497 0.907964 11.2497 1.093V13.3623L8.03073 10.3665C7.8899 10.2355 7.69889 10.1619 7.49973 10.1619C7.30056 10.1619 7.10956 10.2355 6.96873 10.3665C6.8279 10.4975 6.74878 10.6752 6.74878 10.8604C6.74878 11.0457 6.8279 11.2234 6.96873 11.3544L11.4687 15.5404Z" fill="#16181B"/>
</svg>
