<svg width="21" height="18" viewBox="0 0 21 18" fill="none" xmlns="http://www.w3.org/2000/svg">
<path d="M18.125 2.25C18.605 2.24996 19.0667 2.434 19.4151 2.76422C19.7635 3.09444 19.9719 3.54568 19.9975 4.025L20 4.125V8.028C18.9011 7.0422 17.4763 6.49791 16 6.5C12.6865 6.5 10 9.1865 10 12.5C10 13.593 10.2925 14.618 10.803 15.5005L1.875 15.5C1.395 15.5 0.933265 15.316 0.584907 14.9858C0.236549 14.6556 0.0281 14.2043 0.00250006 13.725L7.58671e-09 13.625V5.4995L6.902 5.5L7.015 5.4965C7.5027 5.46702 7.95963 5.24833 8.2885 4.887L8.362 4.801L10.4165 2.25H18.125ZM16 7.5C18.7615 7.5 21 9.7385 21 12.5C21 15.2615 18.7615 17.5 16 17.5C13.2385 17.5 11 15.2615 11 12.5C11 9.7385 13.2385 7.5 16 7.5ZM16 9.5C15.8775 9.50002 15.7593 9.54498 15.6678 9.62636C15.5763 9.70774 15.5178 9.81987 15.5035 9.9415L15.5 10V12H13.5C13.3775 12 13.2593 12.045 13.1678 12.1264C13.0763 12.2077 13.0178 12.3199 13.0035 12.4415L13 12.5C13 12.6225 13.045 12.7407 13.1264 12.8322C13.2077 12.9237 13.3199 12.9822 13.4415 12.9965L13.5 13H15.5V15C15.5 15.1225 15.545 15.2407 15.6264 15.3322C15.7077 15.4237 15.8199 15.4822 15.9415 15.4965L16 15.5C16.1225 15.5 16.2407 15.455 16.3322 15.3736C16.4237 15.2923 16.4822 15.1801 16.4965 15.0585L16.5 15V13H18.5C18.6225 13 18.7407 12.955 18.8322 12.8736C18.9237 12.7923 18.9822 12.6801 18.9965 12.5585L19 12.5C19 12.3775 18.955 12.2593 18.8736 12.1678C18.7923 12.0763 18.6801 12.0178 18.5585 12.0035L18.5 12H16.5V10C16.5 9.87753 16.455 9.75933 16.3736 9.66781C16.2923 9.5763 16.1801 9.51783 16.0585 9.5035L16 9.5ZM6.53 0.5C6.9465 0.5 7.35 0.6385 7.6775 0.892L7.765 0.964L8.987 2.033L7.3885 4.017L7.3415 4.0695C7.2415 4.168 7.1115 4.2305 6.972 4.246L6.902 4.25L7.58671e-09 4.2495V2.375C-4.3145e-05 1.895 0.184001 1.43327 0.514221 1.08491C0.84444 0.736549 1.29568 0.5281 1.775 0.5025L1.875 0.5H6.53Z" fill="#FF6B01"/>
</svg>
