<svg width="20" height="20" viewBox="0 0 20 20" fill="none" xmlns="http://www.w3.org/2000/svg">
<path d="M11.8199 20H8.17988C7.95182 20 7.73059 19.9221 7.55289 19.7792C7.37519 19.6362 7.25169 19.4368 7.20288 19.214L6.79588 17.33C6.25294 17.0921 5.73812 16.7946 5.26088 16.443L3.42388 17.028C3.20645 17.0973 2.97183 17.0902 2.759 17.0078C2.54617 16.9254 2.36794 16.7727 2.25388 16.575L0.429884 13.424C0.31703 13.2261 0.274667 12.9958 0.309727 12.7708C0.344787 12.5457 0.455193 12.3392 0.622884 12.185L2.04788 10.885C1.98308 10.2961 1.98308 9.70189 2.04788 9.113L0.622884 7.816C0.454956 7.66177 0.344399 7.45507 0.309333 7.22978C0.274268 7.00449 0.316774 6.77397 0.429884 6.576L2.24988 3.423C2.36394 3.22532 2.54218 3.07259 2.755 2.99019C2.96783 2.90778 3.20245 2.90066 3.41988 2.97L5.25688 3.555C5.50088 3.375 5.75488 3.207 6.01688 3.055C6.26988 2.913 6.52988 2.784 6.79588 2.669L7.20388 0.787C7.25246 0.564198 7.37572 0.364688 7.55323 0.221549C7.73074 0.0784098 7.95185 0.000239966 8.17988 0H11.8199C12.0479 0.000239966 12.269 0.0784098 12.4465 0.221549C12.6241 0.364688 12.7473 0.564198 12.7959 0.787L13.2079 2.67C13.4879 2.794 13.7619 2.933 14.0269 3.088C14.2739 3.231 14.5129 3.388 14.7429 3.557L16.5809 2.972C16.7982 2.90292 17.0326 2.91017 17.2452 2.99256C17.4578 3.07495 17.6359 3.22753 17.7499 3.425L19.5699 6.578C19.8019 6.985 19.7219 7.5 19.3769 7.817L17.9519 9.117C18.0167 9.70589 18.0167 10.3001 17.9519 10.889L19.3769 12.189C19.7219 12.507 19.8019 13.021 19.5699 13.428L17.7499 16.581C17.6358 16.7787 17.4576 16.9314 17.2448 17.0138C17.0319 17.0962 16.7973 17.1033 16.5799 17.034L14.7429 16.449C14.266 16.8003 13.7515 17.0975 13.2089 17.335L12.7959 19.214C12.7471 19.4366 12.6238 19.6359 12.4463 19.7788C12.2688 19.9218 12.0478 19.9998 11.8199 20ZM9.99588 6C8.93502 6 7.9176 6.42143 7.16746 7.17157C6.41731 7.92172 5.99588 8.93913 5.99588 10C5.99588 11.0609 6.41731 12.0783 7.16746 12.8284C7.9176 13.5786 8.93502 14 9.99588 14C11.0568 14 12.0742 13.5786 12.8243 12.8284C13.5745 12.0783 13.9959 11.0609 13.9959 10C13.9959 8.93913 13.5745 7.92172 12.8243 7.17157C12.0742 6.42143 11.0568 6 9.99588 6Z" fill="#16181B"/>
</svg>
